<?xml version="1.0" standalone="no"?>
<!DOCTYPE svg PUBLIC "-//W3C//DTD SVG 1.1//EN" "http://www.w3.org/Graphics/SVG/1.1/DTD/svg11.dtd" >
<!--
2013-9-30: Created.
-->
<svg>
<metadata>
Created by iconfont
</metadata>
<defs>

<font id="iconfont" horiz-adv-x="1024" >
  <font-face
    font-family="iconfont"
    font-weight="500"
    font-stretch="normal"
    units-per-em="1024"
    ascent="896"
    descent="-128"
  />
    <missing-glyph />
    
    <glyph glyph-name="pause" unicode="&#58907;" d="M119.341824 896m128 0l0 0q128 0 128-128l0-768q0-128-128-128l0 0q-128 0-128 128l0 768q0 128 128 128ZM547.783424 896m128 0l0 0q128 0 128-128l0-768q0-128-128-128l0 0q-128 0-128 128l0 768q0 128 128 128Z"  horiz-adv-x="1024" />

    
    <glyph glyph-name="pencil" unicode="&#58908;" d="M285.568-5.802667l161.92 60.330667-224.682667 209.493333-48.853333-165.717333a85.333333 85.333333 0 0 1 111.616-104.106667zM266.368 321.322667l224.682667-209.493334 398.634666 427.52a106.666667 106.666667 0 0 1-5.248 150.741334l-68.693333 64a106.666667 106.666667 0 0 1-150.741333-5.248L266.368 321.28z"  horiz-adv-x="1024" />

    
    <glyph glyph-name="layout_default" unicode="&#58909;" d="M139.636364 756.363636h930.909091a46.545455 46.545455 0 0 0 46.545454-46.545454v-107.054546H93.090909V709.818182a46.545455 46.545455 0 0 0 46.545455 46.545454z m849.454545-102.4a25.6 25.6 0 1 1 0 51.2 25.6 25.6 0 0 1 0-51.2zM93.090909 551.563636h1024v-572.509091a93.090909 93.090909 0 0 0-93.090909-93.090909H186.181818a93.090909 93.090909 0 0 0-93.090909 93.090909V551.563636z m200.145455-102.4a46.545455 46.545455 0 0 1-46.545455-46.545454v-214.109091a46.545455 46.545455 0 0 1 46.545455-46.545455h418.909091a46.545455 46.545455 0 0 1 46.545454 46.545455v214.109091a46.545455 46.545455 0 0 1-46.545454 46.545454h-418.909091z m563.2 0a46.545455 46.545455 0 0 1-46.545455-46.545454v-60.509091a46.545455 46.545455 0 0 1 46.545455-46.545455h60.509091a46.545455 46.545455 0 0 1 46.545454 46.545455v60.509091a46.545455 46.545455 0 0 1-46.545454 46.545454h-60.509091z m0-204.8a46.545455 46.545455 0 0 1-46.545455-46.545454v-162.909091a46.545455 46.545455 0 0 1 46.545455-46.545455h60.509091a46.545455 46.545455 0 0 1 46.545454 46.545455V197.818182a46.545455 46.545455 0 0 1-46.545454 46.545454h-60.509091zM293.236364 90.763636a46.545455 46.545455 0 0 1-46.545455-46.545454v-9.309091a46.545455 46.545455 0 0 1 46.545455-46.545455h418.909091a46.545455 46.545455 0 0 1 46.545454 46.545455v9.309091a46.545455 46.545455 0 0 1-46.545454 46.545454h-418.909091z"  horiz-adv-x="1210" />

    
    <glyph glyph-name="message" unicode="&#58913;" d="M701.998545 294.679273l34.164364-38.167273a139.636364 139.636364 0 0 0 0-186.135273l-34.164364-38.167272a139.636364 139.636364 0 0 0-208.197818 0l-34.164363 38.167272a139.636364 139.636364 0 0 0 0 186.135273l34.164363 38.167273a139.636364 139.636364 0 0 0 208.197818 0zM379.019636 808.866909h443.345455a279.272727 279.272727 0 0 0 279.272727-279.272727v-167.424a279.272727 279.272727 0 0 0-279.272727-279.272727H379.019636a279.272727 279.272727 0 0 0-279.272727 279.272727V529.594182a279.272727 279.272727 0 0 0 279.272727 279.272727z m-57.716363-447.534545a93.090909 93.090909 0 1 1 0 186.181818 93.090909 93.090909 0 0 1 0-186.181818z m282.530909 0a93.090909 93.090909 0 1 1 0 186.181818 93.090909 93.090909 0 0 1 0-186.181818z m282.624 0a93.090909 93.090909 0 1 1 0 186.181818 93.090909 93.090909 0 0 1 0-186.181818z"  horiz-adv-x="1210" />

    
    <glyph glyph-name="play" unicode="&#58914;" d="M840.988444 188.871111l-467.911111-280.746667A227.555556 227.555556 0 0 0 28.444444 103.253333v561.493334A227.555556 227.555556 0 0 0 373.077333 859.875556l467.911111-280.746667a227.555556 227.555556 0 0 0 0-390.257778z"  horiz-adv-x="1024" />

    
    <glyph glyph-name="triangle" unicode="&#58916;" d="M861.210819 305.834667L301.326629-90.697143A97.52381 97.52381 0 0 0 147.482819-11.117714V781.994667A97.52381 97.52381 0 0 0 301.326629 861.574095L861.210819 464.944762a97.52381 97.52381 0 0 0 0-159.158857z"  horiz-adv-x="1024" />

    
    <glyph glyph-name="platform" unicode="&#58917;" d="M138.666667 288m42.666666 0l661.333334 0q42.666667 0 42.666666-42.666667l0-298.666666q0-42.666667-42.666666-42.666667l-661.333334 0q-42.666667 0-42.666666 42.666667l0 298.666666q0 42.666667 42.666666 42.666667ZM512 736m-160 0a160 160 0 1 1 320 0 160 160 0 1 1-320 0ZM810.666667 384c0 94.293333-133.717333 170.666667-298.666667 170.666667s-298.666667-76.373333-298.666667-170.666667M85.333333 341.333333m42.666667 0l768 0q42.666667 0 42.666667-42.666666l0-21.333334q0-42.666667-42.666667-42.666666l-768 0q-42.666667 0-42.666667 42.666666l0 21.333334q0 42.666667 42.666667 42.666666Z"  horiz-adv-x="1024" />

    
    <glyph glyph-name="layout_video" unicode="&#58921;" d="M139.636364 756.363636h930.909091a46.545455 46.545455 0 0 0 46.545454-46.545454v-107.054546H93.090909V709.818182a46.545455 46.545455 0 0 0 46.545455 46.545454z m849.454545-102.4a25.6 25.6 0 1 1 0 51.2 25.6 25.6 0 0 1 0-51.2zM93.090909 551.563636h1024v-572.509091a93.090909 93.090909 0 0 0-93.090909-93.090909H186.181818a93.090909 93.090909 0 0 0-93.090909 93.090909V551.563636z m200.145455-102.4a46.545455 46.545455 0 0 1-46.545455-46.545454V290.909091a46.545455 46.545455 0 0 1 46.545455-46.545455h214.109091a46.545455 46.545455 0 0 1 46.545454 46.545455v111.709091a46.545455 46.545455 0 0 1-46.545454 46.545454H293.236364z m409.6 0a46.545455 46.545455 0 0 1-46.545455-46.545454V290.909091a46.545455 46.545455 0 0 1 46.545455-46.545455h214.109091a46.545455 46.545455 0 0 1 46.545454 46.545455v111.709091a46.545455 46.545455 0 0 1-46.545454 46.545454h-214.109091z m-409.6-256a46.545455 46.545455 0 0 1-46.545455-46.545454v-111.709091a46.545455 46.545455 0 0 1 46.545455-46.545455h214.109091a46.545455 46.545455 0 0 1 46.545454 46.545455v111.709091a46.545455 46.545455 0 0 1-46.545454 46.545454H293.236364z m409.6 0a46.545455 46.545455 0 0 1-46.545455-46.545454v-111.709091a46.545455 46.545455 0 0 1 46.545455-46.545455h214.109091a46.545455 46.545455 0 0 1 46.545454 46.545455v111.709091a46.545455 46.545455 0 0 1-46.545454 46.545454h-214.109091z"  horiz-adv-x="1210" />

    
    <glyph glyph-name="roster" unicode="&#58922;" d="M96.728615 187.076923h77.705847a39.384615 39.384615 0 0 1 0 78.769231h-78.769231v78.769231h78.769231a39.384615 39.384615 0 0 1 0 78.76923h-78.769231v78.769231h78.769231a39.384615 39.384615 0 1 1 0 78.769231h-78.769231V640a177.230769 177.230769 0 0 0 177.230769 177.230769h433.230769a177.230769 177.230769 0 0 0 177.230769-177.230769v-433.230769a177.230769 177.230769 0 0 0-177.230769-177.230769h-433.230769a177.230769 177.230769 0 0 0-176.167385 157.538461z m455.995077 254.700308a5.907692 5.907692 0 0 1 0.236308-7.916308 80.738462 80.738462 0 1 1 24.379077 129.457231 7.955692 7.955692 0 0 1-4.214154-9.846154c4.371692-11.894154 6.695385-24.812308 6.695385-38.321231 0-28.002462-10.161231-53.641846-27.096616-73.373538z m-41.668923-39.424h-83.298461a174.552615 174.552615 0 0 1-174.552616-174.592c0-29.144615 23.630769-52.775385 52.736-52.775385h317.00677c22.843077 0 41.393231 18.550154 41.39323 41.432616v32.649846a153.324308 153.324308 0 0 1-153.284923 153.284923z m-50.766769 5.986461a105.984 105.984 0 1 1 0 211.968 105.984 105.984 0 0 1 0-211.968z m165.179077-12.20923h-23.276308c-4.726154 0-6.498462-6.301538-2.402461-8.743385a158.011077 158.011077 0 0 0 77.469538-136.034462v-33.673846c0-9.058462-2.835692-17.486769-7.68-24.418461a4.647385 4.647385 0 0 1 3.780923-7.325539h55.453539a38.321231 38.321231 0 0 1 38.281846 38.281846v30.129231c0 78.296615-63.409231 141.784615-141.627077 141.784616z"  horiz-adv-x="1024" />

    
    <glyph glyph-name="share" unicode="&#58923;" d="M416.938667 398.08l212.693333-68.650667a97.792 97.792 0 1 1 22.272 54.869334l-218.197333 70.4a119.466667 119.466667 0 0 1-1.024 20.053333l211.882666 68.394667a97.792 97.792 0 1 1-15.104 57.173333L409.984 529.493333a117.333333 117.333333 0 1 1 6.954667-131.413333zM170.666667 810.666667h682.666666a128 128 0 0 0 128-128v-448a128 128 0 0 0-128-128H170.666667a128 128 0 0 0-128 128V682.666667a128 128 0 0 0 128 128zM472.874667 224m39.125333 0l-0.042667 0q39.125333 0 39.125334-39.125333l0-234.624q0-39.125333-39.125334-39.125334l0.042667 0q-39.125333 0-39.125333 39.125334l0 234.624q0 39.125333 39.125333 39.125333ZM746.666667-88.874667c0-21.632-17.493333-39.125333-39.125334-39.125333H316.458667a39.125333 39.125333 0 0 0 0 78.208h391.082666c21.632 0 39.125333-17.493333 39.125334-39.082667z"  horiz-adv-x="1024" />

    
    <glyph glyph-name="full_course" unicode="&#58924;" d="M186.384896 786.5344l146.944 0.5632c21.7088-0.512 41.8816 14.4896 45.1584 40.1408v27.648a41.5744 41.5744 0 0 1-40.192 40.192L57.719296 893.44c-0.4608 0-0.7168 0.1536-1.0752 0.1536L36.880896 894.0544a37.12 37.12 0 0 1-27.4944-11.008C2.372096 876.032-0.239104 866.304 0.016896 855.3984l2.048-19.712c0-0.4096-1.4336-0.6656-1.4336-1.1264l1.1264-281.5488c0.4608-21.6576 18.432-34.7136 40.192-35.1744h29.2352c21.76-0.512 39.0144 18.432 38.5024 40.0896l-1.2288 153.088 193.4848-190.0544A53.76 53.76 0 1 1 378.077696 596.992L186.384896 786.5344zM1022.327296-66.0992l-1.1776 277.1968c-0.512 21.7088-18.432 34.6624-40.192 35.1744h-27.648c-21.6576 0.512-39.0144-18.432-38.4-40.1408l1.1776-149.8112-193.4336 191.3344a53.8112 53.8112 0 0 1-76.032-76.0832l193.3824-191.1808-146.7392-0.6144c-21.7088 0.512-41.8304-12.8-45.1584-38.4512v-27.648c0.512-21.76 18.5344-39.7312 40.2432-40.2944l276.992 1.6896c0.4096 0 0.6656-0.1536 1.0752-0.1536l19.6608-0.512a37.1712 37.1712 0 0 1 27.5968 11.0592c7.0656 6.912 9.5744 16.7424 9.3696 27.648l-2.1504 19.6608c0 0.512 1.4336 0.768 1.4336 1.1264zM1022.327296 835.4816l-1.1776-277.1968c-0.512-21.7088-18.432-34.6624-40.192-35.1744h-27.648c-21.6576-0.512-39.0144 18.432-38.4 40.1408l1.1776 149.8112-193.4336-191.3344a53.8112 53.8112 0 0 0-76.032 76.0832l193.3824 191.1808-146.7392 0.6144c-21.7088-0.512-41.8304 12.8-45.1584 38.4512v27.648A41.728 41.728 0 0 0 688.349696 896l276.992-1.6896c0.4096 0 0.6656 0.2048 1.0752 0.2048L986.128896 894.976a37.1712 37.1712 0 0 0 27.5968-11.0592c7.0656-6.912 9.5744-16.7424 9.3696-27.648l-2.1504-19.6608c0-0.512 1.4336-0.768 1.4336-1.1264zM378.026496 247.6544a53.7088 53.7088 0 0 1-76.0832 0l-193.4848-190.1056 1.28 150.784c0.4608 21.7088-16.7936 40.6528-38.5024 40.1408h-29.184c-21.8112-0.512-39.7824-13.4656-40.2432-35.2256L0.682496-66.048c0-0.3584 1.4336-0.6144 1.4336-1.0752l-2.048-19.6608c-0.256-10.9056 2.2528-20.6848 9.3184-27.648 6.912-7.0144 16.7424-11.264 27.4944-11.008l19.712 0.4608c0.4096 0 0.6656 0.1536 1.0752 0.1536l280.576-1.6896a41.6256 41.6256 0 0 1 40.2432 40.2944v27.648c-3.2768 25.6-23.4496 38.912-45.1584 38.4512l-148.5824 0.512 193.28 191.1808c20.992 20.992 20.992 55.04 0 76.0832z"  horiz-adv-x="1024" />

    
    <glyph glyph-name="answer" unicode="&#58926;" d="M234.666667 810.666667h512a170.666667 170.666667 0 0 0 170.666666-170.666667v-512a170.666667 170.666667 0 0 0-170.666666-170.666667h-512a170.666667 170.666667 0 0 0-170.666667 170.666667V640a170.666667 170.666667 0 0 0 170.666667 170.666667z m111.061333-164.096a32.853333 32.853333 0 1 1 0-65.664h361.002667a32.853333 32.853333 0 0 1 0 65.664H345.728z m-142.250667 0a32.853333 32.853333 0 1 1 0-65.664h5.461334a32.853333 32.853333 0 1 1 0 65.664H203.52z m142.250667-231.125334a32.853333 32.853333 0 0 1 0-65.621333h289.877333a32.853333 32.853333 0 0 1 0 65.621333H345.728z m-142.250667 0a32.853333 32.853333 0 0 1 0-65.621333h5.461334a32.853333 32.853333 0 0 1 0 65.621333H203.52z m142.250667-231.082666a32.853333 32.853333 0 1 1 0-65.664H777.813333a32.853333 32.853333 0 1 1 0 65.664H345.728z m-142.250667 0a32.853333 32.853333 0 1 1 0-65.664h5.461334a32.853333 32.853333 0 1 1 0 65.664H203.52z"  horiz-adv-x="1024" />

    
    <glyph glyph-name="brush" unicode="&#58927;" d="M140.603077 344.733538c-14.572308-14.572308-22.449231-33.988923-22.449231-53.956923v-200.822153c0-40.014769 20.637538-60.652308 60.652308-60.652308l202.594461 1.220923c20.637538 0 40.014769 8.507077 53.956923 22.449231l322.12677 322.678154-293.572923 293.572923-323.347693-324.529231z m270.532923-245.68123a28.199385 28.199385 0 0 0-40.644923 0l-183.177846 183.177846a28.199385 28.199385 0 0 0 0 40.644923 28.199385 28.199385 0 0 0 40.644923 0l183.138461-183.138462a29.302154 29.302154 0 0 0 0-40.684307zM870.872615 656.541538l-125.558153 126.148924c-46.08 46.08-121.304615 46.08-167.975385 0l-69.159385-69.159385 293.572923-293.572923 68.529231 69.159384a116.972308 116.972308 0 0 1 0.590769 167.384616z"  horiz-adv-x="1024" />

    
    <glyph glyph-name="add" unicode="&#58928;" d="M0 256V512h1024v-256zM384 896h256v-1024H384z"  horiz-adv-x="1024" />

    
    <glyph glyph-name="clean" unicode="&#58929;" d="M111.104 721.565538m50.648615 0l686.395077 0q50.648615 0 50.648616-50.648615l0 0.039385q0-50.648615-50.648616-50.648616l-686.395077 0q-50.648615 0-50.648615 50.648616l0-0.039385q0 50.648615 50.648615 50.648615ZM361.747692 856.615385m50.648616 0l185.147077 0q50.648615 0 50.648615-50.648616l0 0.039385q0-50.648615-50.648615-50.648616l-185.147077 0q-50.648615 0-50.648616 50.648616l0-0.039385q0 50.648615 50.648616 50.648616ZM308.027077 699.076923h393.846154a118.153846 118.153846 0 0 0 118.153846-118.153846v-590.769231a118.153846 118.153846 0 0 0-118.153846-118.153846h-393.846154a118.153846 118.153846 0 0 0-118.153846 118.153846V580.923077a118.153846 118.153846 0 0 0 118.153846 118.153846z m56.910769-241.782154a35.012923 35.012923 0 1 1-70.025846 0V-24.024615a35.012923 35.012923 0 1 1 70.025846 0V457.255385z m350.089846 0a35.012923 35.012923 0 1 1-70.025846 0V-24.024615a35.012923 35.012923 0 1 1 70.025846 0V457.255385z m-175.064615-172.307692a35.012923 35.012923 0 0 1-69.986462 0v-274.589539a35.012923 35.012923 0 1 1 69.986462 0v274.589539z"  horiz-adv-x="1024" />

    
    <glyph glyph-name="out" unicode="&#58930;" d="M301.696 618.666667a192 188.970667 90 1 1 377.941333 0 192 188.970667 90 1 1-377.941333 0ZM682.666667-85.333333H42.666667c0 259.2 200.576 469.333333 448 469.333333 99.84 0 192.085333-34.218667 266.581333-92.074667A213.418667 213.418667 0 0 1 682.666667-85.333333zM798.464 48.768v-27.434667a35.541333 35.541333 0 0 1 64-21.333333l44.8 59.733333a42.666667 42.666667 0 0 1 0 51.2l-44.8 59.733334a35.541333 35.541333 0 0 1-64-21.333334v-27.434666h-59.306667a36.565333 36.565333 0 0 1 0-73.130667h59.306667zM810.666667-85.333333a170.666667 170.666667 0 1 0 0 341.333333 170.666667 170.666667 0 0 0 0-341.333333z"  horiz-adv-x="1024" />

    
    <glyph glyph-name="eye_open" unicode="&#58931;" d="M813.632 589.312a204.608 204.608 0 0 1-204.48-204.416 204.608 204.608 0 0 1 204.48-204.48 204.608 204.608 0 0 1 204.416 204.48 204.608 204.608 0 0 1-204.416 204.416m0-545.152a340.864 340.864 0 0 0-340.736 340.736 340.864 340.864 0 0 0 340.736 340.736 340.864 340.864 0 0 0 340.736-340.736 340.864 340.864 0 0 0-340.736-340.736m0 851.84C472.896 896 181.952 684.032 64 384.896c117.888-299.2 408.896-511.104 749.632-511.104 341.12 0 631.68 211.904 749.632 511.104C1445.376 684.032 1154.688 896 813.632 896"  horiz-adv-x="1664" />

    
    <glyph glyph-name="refresh" unicode="&#58932;" d="M1007.941818 298.728727c0-2.187636-0.279273-3.677091-0.651636-4.421818-28.392727-114.734545-88.064-207.685818-178.734546-278.946909-90.717091-71.214545-196.840727-106.961455-318.696727-106.961455a512.930909 512.930909 0 0 0-188.276364 35.374546 512.558545 512.558545 0 0 0-162.443636 100.677818l-86.016-82.850909a41.984 41.984 0 0 0-29.928727-12.148364 41.751273 41.751273 0 0 0-29.975273 12.194909 38.958545 38.958545 0 0 0-12.660364 28.858182v287.790546c0 11.077818 4.189091 20.805818 12.660364 28.858182a41.704727 41.704727 0 0 0 29.975273 12.194909h298.635636c11.496727 0 21.597091-4.096 29.928727-12.194909a39.424 39.424 0 0 0 12.660364-28.858182c0-10.984727-4.189091-20.852364-12.660364-28.858182l-91.22909-87.877818a345.041455 345.041455 0 0 1 107.333818-65.442909A344.064 344.064 0 0 1 512.558545 73.076364c59.671273 0 115.060364 13.917091 166.632728 41.658181a331.403636 331.403636 0 0 1 123.950545 114.874182c4.840727 7.261091 16.616727 32.302545 35.328 75.031273 3.444364 9.867636 10.24 14.708364 20.061091 14.708364h128c5.771636 0 10.752-2.001455 14.987636-6.050909 4.189091-4.096 6.423273-8.983273 6.423273-14.568728zM1024.558545 812.357818v-287.557818c0-11.077818-4.189091-20.852364-12.660363-28.858182a42.449455 42.449455 0 0 0-29.975273-12.194909h-298.635636a41.518545 41.518545 0 0 0-29.928728 12.194909 39.237818 39.237818 0 0 0 0 57.716364l92.020364 88.622545c-65.908364 58.554182-143.453091 87.877818-232.727273 87.877818-59.578182 0-115.060364-13.963636-166.632727-41.658181A329.448727 329.448727 0 0 1 222.114909 573.626182c-4.840727-7.307636-16.616727-32.302545-35.328-75.077818-3.444364-9.867636-10.24-14.661818-20.107636-14.661819H33.885091a20.805818 20.805818 0 0 0-14.987636 6.05091 19.316364 19.316364 0 0 0-6.283637 14.42909V508.741818C41.518545 623.429818 101.562182 716.474182 192.698182 787.735273 283.834182 858.949818 390.562909 894.696727 512.698182 894.696727c64.884364 0 128-11.822545 189.300363-35.607272a518.609455 518.609455 0 0 0 163.328-100.445091l86.667637 82.850909a41.751273 41.751273 0 0 0 29.928727 12.148363c11.543273 0 21.643636-4.049455 29.975273-12.194909 8.331636-8.378182 12.660364-17.966545 12.660363-29.090909z"  horiz-adv-x="1024" />

    
    <glyph glyph-name="pencil_point" unicode="&#58933;" d="M858.190769 35.761231l37.612308 48.364307a39.384615 39.384615 0 0 1-31.113846 63.56677h-75.224616a39.384615 39.384615 0 0 1-31.113846-63.56677l37.651693-48.364307a39.384615 39.384615 0 0 1 62.148923 0zM197.710769 8.704l182.468923 67.977846-230.4 214.882462-55.138461-186.761846a78.769231 78.769231 0 0 1 103.069538-96.098462zM194.441846 350.365538l230.4-214.882461L841.176615 581.947077a98.461538 98.461538 0 0 1-4.844307 139.145846l-86.409846 80.580923a98.461538 98.461538 0 0 1-139.145847-4.844308L194.441846 350.365538z"  horiz-adv-x="1024" />

    
    <glyph glyph-name="course" unicode="&#58934;" d="M708.923077 29.538462a78.769231 78.769231 0 0 0-78.769231-78.769231H236.307692a78.769231 78.769231 0 0 0-78.76923 78.769231V580.923077a78.769231 78.769231 0 0 0 78.76923 78.769231v-551.384616a78.769231 78.769231 0 0 1 78.769231-78.76923h393.846154zM708.923077 817.230769v-157.538461h157.538461v-472.615385a78.769231 78.769231 0 0 0-78.76923-78.769231H393.846154a78.769231 78.769231 0 0 0-78.769231 78.769231V738.461538a78.769231 78.769231 0 0 0 78.769231 78.769231h315.076923zM387.544615 721.447385V384h55.296V513.496615h83.652923c82.235077 0 123.352615 34.973538 123.352616 104.448 0 69.001846-41.117538 103.502769-122.407385 103.50277H387.544615z m55.296-47.261539h80.344616c24.103385 0 42.062769-4.253538 53.405538-13.233231 11.342769-8.507077 17.486769-22.685538 17.486769-43.008 0-20.322462-5.671385-34.973538-17.014153-43.95323-11.342769-8.507077-29.302154-13.233231-53.878154-13.233231h-80.344616v113.427692zM571.076923 384a19.692308 19.692308 0 1 1 0-39.384615h157.538462a19.692308 19.692308 0 1 1 0 39.384615h-157.538462z m-78.769231-118.153846a19.692308 19.692308 0 1 1 0-39.384616h236.307693a19.692308 19.692308 0 1 1 0 39.384616h-236.307693zM748.307692 817.230769l59.076923-59.076923L866.461538 699.076923h-118.153846z"  horiz-adv-x="1024" />

    
    <glyph glyph-name="eye_close" unicode="&#58936;" d="M1429.802553 483.958821l183.549247-180.477293c22.783658-22.399664 28.799568-49.727254 18.239726-78.846818-10.239846-28.415574-32.255516-45.31132-62.847057-48.319275-25.34362-2.559962-46.079309 7.679885-63.935041 25.599616-58.623121 58.943116-117.438238 117.758234-176.445353 176.317356-3.839942 3.775943-7.871882 7.231892-10.879837 9.98385L1202.797958 322.553242c2.367964-5.503917 5.119923-12.159818 8.127878-18.559722 36.095459-77.182842 72.510912-154.173687 108.286376-231.420529 13.631796-29.439558 9.535857-57.663135-11.967821-81.854772-20.799688-23.423649-47.551287-30.719539-77.886831-21.567676-21.567676 6.463903-35.903461 21.183682-45.183323 41.34338-36.863447 79.102813-73.790893 158.077629-110.718339 236.988445-3.455948 7.35989-7.039894 14.591781-10.239846 21.119683-51.96722-8.703869-102.846457-16.895747-153.469698-26.559602-4.159938-0.831988-8.959866-12.03182-9.087864-18.367724-0.63999-67.454988-0.127998-134.973975-0.447993-202.428964-0.255996-44.799328-20.799688-72.63891-59.263111-81.918771-40.191397-9.599856-81.918771 17.471738-87.678685 58.367125-2.559962 18.111728-1.727974 36.735449-1.791973 55.103173-0.191997 61.31108 0 122.558162 0 183.933241l-187.645185 32.63951c-2.68796-5.503917-6.527902-13.247801-10.175848-20.991685a179288.830668 179288.830668 0 0 0-108.030379-231.356529c-17.215742-36.735449-45.119323-54.207187-78.206827-49.919252-51.839222 6.463903-81.278781 56.383154-59.903102 104.190438 26.047609 58.495123 53.759194 116.222257 80.70279 174.333385l35.96746 77.374839-109.502357 62.271066c-4.607931-4.351935-9.98385-9.215862-15.167773-14.335785-56.959146-56.831148-113.662295-113.790293-170.749438-170.557442-22.847657-22.591661-50.175247-29.119563-80.830788-18.559721-28.799568 9.98385-43.519347 31.679525-47.35929 60.927086-3.199952 24.575631 5.631916 45.119323 23.167653 62.527062 53.631196 53.375199 106.942396 107.070394 160.765588 160.317595 5.183922 5.119923 12.863807 7.807883 15.99976 9.599856-35.647465 46.975295-69.758954 86.334705-97.086543 129.854052-25.215622 40.063399-44.927326 83.838742-63.871042 127.550087C23.871642 768.754549 42.68736 809.585936 77.438838 824.625711 116.990245 841.585456 155.133673 828.65765 174.717379 791.026215c18.815718-36.159458 33.663495-74.814878 55.679165-108.798368 85.118723-131.32603 206.204907-216.444753 354.938676-260.348095 231.99652-68.606971 451.641225-40.383394 653.750194 95.99856 98.110528 66.175007 167.293491 156.797648 211.196832 266.875997 14.271786 35.583466 53.951191 54.399184 88.446673 44.095338 45.695315-13.695795 65.919011-58.431124 47.167293-104.574431-34.175487-84.158738-80.382794-160.63759-143.805843-226.300606-3.135953-3.391949-6.143908-7.039894-12.223817-14.015789"  horiz-adv-x="1663" />

    
    <glyph glyph-name="timer" unicode="&#58937;" d="M509.05728 613.546667c-166.912 0-302.677333-138.666667-302.677333-308.992 0-170.410667 135.765333-308.992 302.677333-308.992 166.912 0 302.677333 138.581333 302.677333 308.992 0 170.368-135.765333 308.949333-302.677333 308.949333z m52.736-339.370667l-0.170667 0.341333a60.074667 60.074667 0 0 0-52.565333-31.786666c-33.365333 0-60.544 27.733333-60.544 61.824 0 21.504 10.752 40.405333 27.008 51.370666l-0.170667 0.341334 199.552 116.522666-113.066666-198.613333z m275.84 303.36l38.314667 39.125333a17.92 17.92 0 0 1 0 24.96l-36.693334 37.461334a17.066667 17.066667 0 0 1-24.448 0l-38.314666-39.125334a417.066667 417.066667 0 0 1-224.170667 94.890667V807.722667h51.84a34.986667 34.986667 0 0 1 34.602667 35.285333V860.672a34.986667 34.986667 0 0 1-34.56 35.328H413.867947a34.986667 34.986667 0 0 1-34.56-35.328v-17.664a34.986667 34.986667 0 0 1 34.56-35.285333h51.925333v-72.832A417.365333 417.365333 0 0 1 241.622613 640l-38.314666 39.082667a17.024 17.024 0 0 1-24.448 0l-36.693334-37.461334a17.92 17.92 0 0 1 0-24.96l38.314667-39.082666A436.224 436.224 0 0 1 85.334613 304.554667C85.334613 65.706667 275.07328-128 509.05728-128c233.984 0 423.722667 193.706667 423.722667 432.554667 0 103.552-35.669333 198.528-95.146667 273.024zM509.05728-39.68c-185.898667 0-337.237333 154.453333-337.237333 344.277333 0 189.781333 151.338667 344.277333 337.237333 344.277334 185.898667 0 337.237333-154.453333 337.237333-344.32 0-189.781333-151.338667-344.234667-337.237333-344.234667z"  horiz-adv-x="1024" />

    
    <glyph glyph-name="shuffling" unicode="&#58939;" d="M427.287273 690.269091h223.278545v-111.522909l123.810909 222.952727H427.380364C191.767273 801.838545 0 610.071273 0 374.411636c0-188.043636 121.949091-347.927273 291.002182-404.945454l57.437091 99.467636c-136.052364 35.234909-237.009455 158.580364-237.009455 305.477818C111.569455 548.631273 253.207273 690.269091 427.287273 690.269091z m481.559272 84.526545l-57.43709-99.514181c136.052364-35.188364 237.009455-158.533818 237.009454-305.431273a316.229818 316.229818 0 0 0-315.904-315.904H551.563636v111.569454l-123.810909-222.952727h344.762182c235.706182 0 427.333818 191.767273 427.333818 427.287273 0 187.857455-121.949091 347.880727-291.002182 404.945454zM761.297455 414.72l-212.619637 121.483636a46.545455 46.545455 0 0 1-69.632-40.401454v-242.967273a46.545455 46.545455 0 0 1 69.632-40.448l212.619637 121.483636a46.545455 46.545455 0 0 1 0 80.849455z"  horiz-adv-x="1210" />

    
    <glyph glyph-name="text" unicode="&#58940;" d="M897.575385 114.530462l37.612307 48.364307a39.384615 39.384615 0 0 1-31.113846 63.566769h-75.224615a39.384615 39.384615 0 0 1-31.113846-63.566769l37.651692-48.364307a39.384615 39.384615 0 0 1 62.148923 0zM827.076923 777.846154m0-98.461539l0 0q0-98.461538-98.461538-98.461538l-551.384616 0q-98.461538 0-98.461538 98.461538l0 0q0 98.461538 98.461538 98.461539l551.384616 0q98.461538 0 98.461538-98.461539ZM551.384615-9.846154m-98.461538 0l0 0q-98.461538 0-98.461539 98.461539l0 551.384615q0 98.461538 98.461539 98.461538l0 0q98.461538 0 98.461538-98.461538l0-551.384615q0-98.461538-98.461538-98.461539Z"  horiz-adv-x="1024" />

    
    <glyph glyph-name="eraser" unicode="&#58941;" d="M675.721846 197.238154l-389.907692 389.868308L512.039385 813.213538a118.153846 118.153846 0 0 0 167.108923 0l222.798769-222.798769a118.153846 118.153846 0 0 0 0-167.069538l-226.185846-226.185846z m-55.689846-55.729231l-108.032-108.032a118.153846 118.153846 0 0 0-167.069538 0L122.131692 256.315077a118.153846 118.153846 0 0 0 0 167.108923L230.084923 531.377231l389.907692-389.868308zM118.153846-9.846154m39.384616 0l393.846153 0q39.384615 0 39.384616-39.384615l0 0q0-39.384615-39.384616-39.384616l-393.846153 0q-39.384615 0-39.384616 39.384616l0 0q0 39.384615 39.384616 39.384615ZM936.96-3.623385l37.612308 48.364308a39.384615 39.384615 0 0 1-31.113846 63.566769h-75.224616a39.384615 39.384615 0 0 1-31.113846-63.566769l37.651692-48.364308a39.384615 39.384615 0 0 1 62.148923 0z"  horiz-adv-x="1024" />

    
    <glyph glyph-name="undo" unicode="&#58942;" d="M966.930074-38.794395s-9.255328-23.473086-21.582636 0c0 0-137.88469 409.912554-473.990929 306.686113v-127.211525s-5.356275-74.830309-71.600791-26.11184L69.320829 395.575855s-70.104184 37.572692 4.253512 88.969299L407.553824 767.206799s50.215076 35.249014 62.266694-22.567246l0.393844-137.293924c0-0.118153 626.408453-29.656433 496.715712-646.140024"  horiz-adv-x="1024" />

    
    <glyph glyph-name="camera" unicode="&#58943;" d="M516.266667 162.133333A345.6 345.6 0 1 0 516.266667 853.333333a345.6 345.6 0 0 0 0-691.2z m0 192a192 192 0 1 1 0 384 192 192 0 0 1 0-384zM516.266667 584.533333m-76.8 0a76.8 76.8 0 1 1 153.6 0 76.8 76.8 0 1 1-153.6 0ZM362.666667-29.866667m38.4 0l230.4 0q38.4 0 38.4-38.4l0 0q0-38.4-38.4-38.4l-230.4 0q-38.4 0-38.4 38.4l0 0q0 38.4 38.4 38.4ZM554.666667 238.933333v-268.8a38.4 38.4 0 1 0-76.8 0v268.8a38.4 38.4 0 1 0 76.8 0z"  horiz-adv-x="1024" />

    
    <glyph glyph-name="microphone" unicode="&#59096;" d="M276.061091 896m224.674909 0l0 0q224.674909 0 224.674909-224.674909l0-179.758546q0-224.674909-224.674909-224.674909l0 0q-224.674909 0-224.674909 224.674909l0 179.758546q0 224.674909 224.674909 224.674909ZM545.652364-2.746181999999976h89.879272a44.916364 44.916364 0 1 0 0-89.832727H365.940364a44.916364 44.916364 0 0 0 0 89.832727h89.832727V133.58545500000002C276.48 158.44072700000004 139.636364 330.47272699999996 139.636364 536.529455a46.545455 46.545455 0 1 0 93.090909 0c0-174.126545 121.483636-312.971636 268.008727-312.971637s268.008727 138.845091 268.008727 312.971637a46.545455 46.545455 0 1 0 93.090909 0c0-206.103273-136.843636-378.088727-316.183272-402.944v-136.331637z"  horiz-adv-x="1024" />

    
    <glyph glyph-name="focus" unicode="&#59097;" d="M512 384m-307.2 0a307.2 307.2 0 1 1 614.4 0 307.2 307.2 0 1 1-614.4 0ZM939.946667 435.2H981.333333a42.666667 42.666667 0 0 0 42.666667-42.666667v-17.066666a42.666667 42.666667 0 0 0-42.666667-42.666667h-41.386666a431.146667 431.146667 0 0 0-376.746667-376.746667V-85.33333300000004a42.666667 42.666667 0 0 0-42.666667-42.666667h-17.066666a42.666667 42.666667 0 0 0-42.666667 42.666667v41.386666a431.146667 431.146667 0 0 0-376.746667 376.746667H42.666667a42.666667 42.666667 0 0 0-42.666667 42.666667v17.066666a42.666667 42.666667 0 0 0 42.666667 42.666667h41.386666a431.146667 431.146667 0 0 0 376.746667 376.746667V853.333333a42.666667 42.666667 0 0 0 42.666667 42.666667h17.066666a42.666667 42.666667 0 0 0 42.666667-42.666667v-41.386666a431.146667 431.146667 0 0 0 376.746667-376.746667z m-42.666667-99.413333a42.666667 42.666667 0 0 0-26.88 39.68v17.066666a42.666667 42.666667 0 0 0 26.88 39.68 388.48 388.48 0 0 1-337.066667 337.066667 42.666667 42.666667 0 0 0-39.68-26.88h-17.066666a42.666667 42.666667 0 0 0-39.68 26.88 388.48 388.48 0 0 1-337.066667-337.066667 42.666667 42.666667 0 0 0 26.88-39.68v-17.066666a42.666667 42.666667 0 0 0-26.88-39.68 388.48 388.48 0 0 1 337.066667-337.066667 42.666667 42.666667 0 0 0 39.68 26.88h17.066666a42.666667 42.666667 0 0 0 39.68-26.88 388.48 388.48 0 0 1 337.066667 337.066667z"  horiz-adv-x="1024" />

    
    <glyph glyph-name="fullscreen" unicode="&#59098;" d="M830.5152 561.3568L713.216 444.0064a51.2 51.2 0 0 0-72.448 0L568.32 516.4032A51.2 51.2 0 0 0 568.32 588.8l117.4016 117.4016-57.3952 57.3952a51.2 51.2 0 0 0 36.1984 87.3984h259.584a51.2 51.2 0 0 0 51.2-51.2v-259.584a51.2 51.2 0 0 0-87.3472-36.2496L830.464 561.3568zM183.7056 204.13440000000003l119.808 119.8592a51.2 51.2 0 0 0 72.448 0l72.3968-72.3968a51.2 51.2 0 0 0 0-72.3968l-114.7904-114.7904 55.3984-51.712a51.2 51.2 0 0 0-33.1264-88.576l-259.4816-9.0624a51.2 51.2 0 0 0-52.9408 49.3568L34.304 223.8976a51.2 51.2 0 0 0 86.0672 39.2704l63.2832-59.0336z"  horiz-adv-x="1024" />

    
    <glyph glyph-name="full_exit_course" unicode="&#59102;" d="M704.9728 717.9775999999999L824.32 833.28a51.2 51.2 0 0 0 72.3968-1.2288l71.168-73.728a51.2 51.2 0 0 0-1.28-72.3456l-119.4496-115.3536 56.4224-58.368a51.2 51.2 0 0 0-37.7344-86.784l-259.584 4.5568a51.2 51.2 0 0 0-50.3296 52.0704l4.5568 259.584a51.2 51.2 0 0 0 88.064 34.6624l56.32-58.368zM321.536 52.48000000000002l-121.9072-117.76a51.2 51.2 0 0 0-72.3968 1.2288l-71.168 73.728a51.2 51.2 0 0 0 1.28 72.3456l116.7872 112.7936-54.4768 52.6336a51.2 51.2 0 0 0 34.6624 88.064l259.584 4.5056a51.2 51.2 0 0 0 52.0704-50.3296l4.5568-259.584a51.2 51.2 0 0 0-86.784-37.7344L321.536 52.48000000000002z"  horiz-adv-x="1024" />

    
    <glyph glyph-name="screenshots" unicode="&#59104;" d="M852.48 156.15999999999997h170.496v-113.664h-170.496V-128h-113.664v170.496H255.744a85.248 85.248 0 0 0-85.248 85.248V610.816H0V724.48h170.496V894.976h113.664v-170.496h483.072a85.248 85.248 0 0 0 85.248-85.248v-483.072z m-568.32 0h454.656V610.816H284.16v-454.656z"  horiz-adv-x="1024" />

    
    <glyph glyph-name="handup" unicode="&#59105;" d="M467.72419 318.36647600000003A288.816762 288.816762 0 1 0 467.72419 896a288.816762 288.816762 0 0 0 0-577.633524zM349.086476 607.1832380000001a41.252571 41.252571 0 1 1 0 82.505143 41.252571 41.252571 0 0 1 0-82.505143z m221.037714 0a41.252571 41.252571 0 1 1 0 82.505143 41.252571 41.252571 0 0 1 0-82.505143zM754.883048 305.29828599999996v43.056762c0 34.620952 15.798857 65.633524 40.618666 86.113523V510.244571a50.712381 50.712381 0 0 0 60.854857 49.737143V671.4026670000001a40.618667 40.618667 0 1 0 81.188572 0v-236.982857c24.81981-20.48 40.618667-51.395048 40.618667-86.064762v-302.031238c0-24.771048-8.094476-47.689143-21.796572-66.218667 3.120762-22.040381 4.729905-44.568381 4.729905-67.486476H7.558095c0 263.314286 213.479619 476.793905 476.793905 476.793904 100.449524 0 193.682286-31.061333 270.531048-84.114285z"  horiz-adv-x="1024" />

    
    <glyph glyph-name="gift" unicode="&#59114;" d="M396.868267-120.62720000000002c-22.493867 0-40.891733 20.514133-40.891734 45.602133 0 25.053867 18.397867 45.568 40.8576 45.568h306.346667c22.459733 0 40.8576-20.48 40.8576-45.568s-18.397867-45.602133-40.8576-45.602133H396.868267zM884.292267 447.488c1.1264 11.946667 2.286933 23.3472 2.286933 35.293867V656.5888a113.902933 113.902933 0 0 0-2.286933-209.1008m-181.725867 107.1104l-65.877333-68.369067 15.36-96.324266c5.12-33.041067-12.4928-45.568-40.311467-30.173867l-81.237333 48.4352-81.169067-45.602133c-27.8528-15.36-45.431467-2.286933-40.3456 30.208l15.36 96.290133-65.877333 68.369067c-22.7328 22.801067-15.36 45.602133 15.325866 50.722133l90.862934 12.526933 40.277333 83.7632c12.526933 30.208 35.2256 30.208 50.5856 0l40.277333-86.016 90.897067-12.561066c31.197867-5.700267 38.570667-28.4672 15.872-51.268267m-600.200533-1.706667c0 51.268267 34.065067 94.549333 80.0768 108.817067v-178.346667c0-13.653333 1.1264-26.760533 2.833066-39.867733-47.7184 12.526933-82.944 56.968533-82.944 109.397333M886.613333 752.298667V829.2352c0 35.908267-28.9792 65.536-65.3312 65.536H247.739733a65.4336 65.4336 0 0 1-65.297066-65.536v-74.069333C85.879467 739.191467 11.502933 654.301867 11.502933 552.8917329999999c0-111.684267 89.7024-202.8544 200.465067-205.141333 54.510933-124.791467 178.2784-211.968 322.525867-211.968 144.7936 0 268.629333 87.7568 323.106133 212.548267 104.482133 8.533333 187.392 97.416533 187.392 204.561066 0 96.8704-68.130133 178.346667-158.4128 199.406934M506.402133-34.81600000000003h89.975467v221.627733h-89.975467z"  horiz-adv-x="1058" />

    
    <glyph glyph-name="sub" unicode="&#59117;" d="M128 320V448h768v-128z"  horiz-adv-x="1024" />

    
    <glyph glyph-name="redo" unicode="&#59118;" d="M78.651077-38.79384600000003s137.885538 409.915077 473.993846 306.688v-127.212308s5.356308-74.830769 71.601231-26.112l330.436923 281.009231s70.104615 37.572923-4.253539 88.969846l-333.981538 282.663385s-50.215385 35.249231-62.267077-22.567385l-0.393846-137.294769c0-0.118154-626.412308-29.656615-496.718769-646.144 0 0 9.255385-23.473231 21.582769 0z"  horiz-adv-x="1024" />

    
    <glyph glyph-name="rect" unicode="&#59119;" d="M897.575385 75.145846l37.612307 48.364308a39.384615 39.384615 0 0 1-31.113846 63.566769h-75.224615a39.384615 39.384615 0 0 1-31.113846-63.566769l37.651692-48.364308a39.384615 39.384615 0 0 1 62.148923 0zM748.307692 561.230769v-354.461538a177.230769 177.230769 0 0 0-177.230769-177.230769h-354.461538A177.230769 177.230769 0 0 0 39.384615 206.769231v354.461538A177.230769 177.230769 0 0 0 216.615385 738.461538h354.461538A177.230769 177.230769 0 0 0 748.307692 561.230769z m-157.538461 0a19.692308 19.692308 0 0 1-19.692308 19.692308h-354.461538a19.692308 19.692308 0 0 1-19.692308-19.692308v-354.461538a19.692308 19.692308 0 0 1 19.692308-19.692308h354.461538a19.692308 19.692308 0 0 1 19.692308 19.692308v354.461538z"  horiz-adv-x="1024" />

    
    <glyph glyph-name="pointer" unicode="&#59120;" d="M524.760615 249.93476899999996l-103.502769-103.502769a78.769231 78.769231 0 0 0-131.426461 34.067692L142.769231 695.256615a78.769231 78.769231 0 0 0 97.398154 97.35877l514.717538-147.062154a78.769231 78.769231 0 0 0 34.067692-131.426462l-124.84923-124.849231 186.683077-200.231384a98.461538 98.461538 0 0 0-143.990154-134.301539l-182.035693 195.190154z"  horiz-adv-x="1024" />

    
    <glyph glyph-name="tools" unicode="&#59121;" d="M446.030769 350.75938499999995a65.575385 65.575385 0 1 1 131.150769 0 65.575385 65.575385 0 0 1-131.150769 0M315.076923 659.692308v19.692307C315.076923 733.735385 364.071385 777.846154 424.487385 777.846154h175.02523C659.928615 777.846154 708.923077 733.735385 708.923077 679.3846149999999V659.692308h39.384615a157.538462 157.538462 0 0 0 157.538462-157.538462v-118.153846h-282.387692a118.193231 118.193231 0 0 1-222.916924 0H118.153846v118.153846a157.538462 157.538462 0 0 0 157.538462 157.538462h39.384615z m43.756308 0h306.333538v19.692307c0 32.610462-29.380923 59.076923-65.654154 59.076923h-175.02523c-36.233846 0-65.654154-26.466462-65.654154-59.076923V659.692308zM618.771692 305.230769c-18.944-46.552615-59.628308-78.769231-106.771692-78.769231-47.143385 0-87.827692 32.216615-106.771692 78.769231H118.153846v-157.538461a157.538462 157.538462 0 0 1 157.538462-157.538462h472.615384a157.538462 157.538462 0 0 1 157.538462 157.538462v157.538461h-287.074462z"  horiz-adv-x="1024" />

    
    <glyph glyph-name="transposition" unicode="&#59123;" d="M979.139048 608.548571L777.167238 426.422857a60.65981 60.65981 0 0 0-101.180952 45.056c0 17.895619 7.899429 33.840762 20.187428 44.909714l84.553143 76.361143H84.74819a60.65981 60.65981 0 0 0 0 121.270857h158.037334-11.50781 549.449143l-84.699428 76.214858 0.146285 0.195047a60.220952 60.220952 0 0 0-20.187428 44.860953C675.986286 868.839619 703.097905 896 736.548571 896c15.60381 0 29.696-6.046476 40.472381-15.750095l202.215619-181.735619a60.269714 60.269714 0 0 0-0.146285-89.965715zM24.137143 147.60228600000005c0 17.895619 7.899429 33.840762 20.23619 44.909714l-0.146285 0.195048 202.118095 181.881904 0.146286-0.146285c10.727619 9.654857 24.81981 15.701333 40.423619 15.701333 33.450667 0 60.611048-27.111619 60.611047-60.611048 0-17.895619-7.899429-33.792-20.187428-44.860952l0.146285-0.195048-84.699428-76.214857h549.449143-11.50781 157.988572a60.611048 60.611048 0 1 0 0-121.270857H242.834286l84.699428-76.214857-0.146285-0.146286c12.288-11.117714 20.187429-27.014095 20.187428-44.909714 0-33.499429-27.160381-60.65981-60.611047-60.65981-15.60381 0-29.696 6.046476-40.472381 15.750096l-0.097524-0.195048-202.118095 181.881905 0.146285 0.195047A60.269714 60.269714 0 0 0 24.137143 147.60228600000005z"  horiz-adv-x="1024" />

    
    <glyph glyph-name="gift_box" unicode="&#59124;" d="M570.329627 427.968865h327.223828v-411.099976c-0.756844-37.263448-11.085542-66.691333-31.030613-88.239133-19.989592-21.5478-51.688009-32.366221-95.184292-32.36622h-201.053443V427.968865z m-116.643051 0H125.483303v-414.394474c0-37.263448 10.328698-66.112569 30.986093-86.591884 20.701916-20.479314 52.756495-30.718972 96.252777-30.718971h201.053443V427.968865z m116.643051 256.525673h305.809588c22.794367 0 38.287414-4.585586 46.52366-13.712236 8.191726-9.126651 12.287589-22.082043 12.287589-38.910698V537.577718c0-17.496458-3.739701-30.49637-11.219103-38.910698-7.479402-8.414327-22.260124-12.59923-44.386688-12.59923h-309.059566V684.494538z m-116.643051 0H143.647564c-22.794367 0-37.61961-3.828741-44.386688-11.530744C92.449278 665.350831 89.065739 653.063243 89.065739 636.2791090000001V539.80373c0-18.253302 3.739701-31.787458 11.219103-40.557946 7.479402-8.770489 22.260124-13.177994 44.386688-13.177994h309.059566V684.494538z m98.389749 72.345404h143.355201c9.972536 0 17.630018 2.404093 22.972448 7.12324a37.842211 37.842211 0 0 1 11.219103 18.119741c2.136972 7.301321 3.205458 15.493047 3.205458 24.664218 0 9.126651-0.356162 17.719059-1.068486 25.732704-1.424648 8.013645-3.027377 16.650573-4.808187 25.777224a73.013208 73.013208 0 0 1-8.547888 23.595732 28.71556 28.71556 0 0 1-15.493046 13.133473c-6.455436 2.226012-14.24648 0.712324-23.551212-4.407505-10.68486-6.544477-22.794367-13.712237-36.373043-21.369719-13.534156-7.657483-26.89023-15.359486-40.068224-23.016969-13.177994-7.657483-25.332021-14.602642-36.373043-20.835476s-19.054666-11.130062-24.040934-14.780723A51.598968 51.598968 0 0 1 525.364176 793.569147a27.914196 27.914196 0 0 1-4.273944-17.540978c0.712324-5.475991 3.56162-10.061576 8.547888-13.712236 4.986268-3.65066 12.46567-5.475991 22.482726-5.475991z m-83.386425-1.068486H324.310733c-9.972536 0-17.630018 2.359573-22.972448 7.12324a37.842211 37.842211 0 0 0-11.219103 18.075221 87.70489 87.70489 0 0 0-3.205458 24.664218c0 9.126651 0.712324 17.719059 2.136972 25.777224a201.676726 201.676726 0 0 0 4.273944 26.266947c2.136972 9.527333 5.164349 17.585498 9.082131 24.129974A28.71556 28.71556 0 0 0 317.899817 894.986274c6.410916 2.226012 14.24648 0.356162 23.551212-5.475991 10.68486-6.588997 22.794367-13.712237 36.373043-21.369719 13.534156-7.702003 26.712149-15.359486 39.533981-23.061489 12.821832-7.657483 24.797779-14.602642 35.8388-20.790956 11.041022-6.232835 19.410828-11.130062 25.10942-14.825243 7.12324-5.119829 12.46567-10.7739 16.02729-16.962215 3.56162-6.232835 5.030788-12.064987 4.318464-17.540977a19.76699 19.76699 0 0 0-8.547888-13.712237c-5.030788-3.65066-12.154028-5.475991-21.369719-5.475991z"  horiz-adv-x="1024" />

    
    <glyph glyph-name="call" unicode="&#59125;" d="M204.8 896h614.4a204.8 204.8 0 0 0 204.8-204.8v-614.4a204.8 204.8 0 0 0-204.8-204.8H204.8a204.8 204.8 0 0 0-204.8 204.8V691.2a204.8 204.8 0 0 0 204.8 204.8z m37.12-585.5232l211.2-196.9664 355.8912 381.6448a128 128 0 0 1-6.2976 180.9408l-24.0128 22.3744a128 128 0 0 1-180.8896-6.2976l-355.8912-381.696z m59.5968-292.096l110.6432 41.2672-211.2 196.9664-33.4336-113.3056a102.4 102.4 0 0 1 133.9904-124.928z"  horiz-adv-x="1024" />

    
    <glyph glyph-name="vote" unicode="&#59127;" d="M51.2 896h153.6a51.2 51.2 0 0 0 51.2-51.2v-921.6a51.2 51.2 0 0 0-51.2-51.2H51.2a51.2 51.2 0 0 0-51.2 51.2V844.8a51.2 51.2 0 0 0 51.2 51.2z m409.6-204.8h153.6a51.2 51.2 0 0 0 51.2-51.2v-716.8a51.2 51.2 0 0 0-51.2-51.2H460.8a51.2 51.2 0 0 0-51.2 51.2V640a51.2 51.2 0 0 0 51.2 51.2z m409.6-153.6h153.6a51.2 51.2 0 0 0 51.2-51.2v-563.2a51.2 51.2 0 0 0-51.2-51.2h-153.6a51.2 51.2 0 0 0-51.2 51.2V486.4a51.2 51.2 0 0 0 51.2 51.2z"  horiz-adv-x="1075" />

    
    <glyph glyph-name="inform" unicode="&#59128;" d="M163.57287 272.695652A290.192696 290.192696 0 0 0 155.826087 339.478261v133.565217a289.391304 289.391304 0 0 0 267.130435 288.545392V829.217391A66.782609 66.782609 0 0 0 489.73913 896h26.713044a66.782609 66.782609 0 0 0 66.782609-66.782609V762.434783A289.391304 289.391304 0 0 0 868.173913 473.043478v-133.565217c0-22.973217-2.671304-45.32313-7.746783-66.782609H868.173913a133.565217 133.565217 0 0 0 0-267.130435H155.826087a133.565217 133.565217 0 0 0 0 267.130435h7.746783z m156.404869-329.015652a22.26087 22.26087 0 1 0 27.870609 34.726957c38.377739-30.809043 90.512696-48.528696 146.387478-48.528696 55.830261 0 107.920696 17.719652 146.298435 48.484174a22.26087 22.26087 0 0 0 27.870609-34.771478c-46.436174-37.175652-108.365913-58.234435-174.169044-58.234435-65.847652 0-127.777391 21.103304-174.258087 58.323478z"  horiz-adv-x="1024" />

    
    <glyph glyph-name="call_board" unicode="&#59129;" d="M512 818.432m-77.568 0a77.568 77.568 0 1 1 155.136 0 77.568 77.568 0 1 1-155.136 0ZM397.952 818.432a81.792 81.792 0 0 1-2.304-19.413333c0-53.546667 52.053333-96.938667 116.352-96.938667 64.256 0 116.352 43.392 116.352 96.938667 0 6.656-0.810667 13.141333-2.304 19.413333H768a170.666667 170.666667 0 0 0 170.666667-170.666667v-589.568a170.666667 170.666667 0 0 0-170.666667-170.666666H256a170.666667 170.666667 0 0 0-170.666667 170.666666V647.765333a170.666667 170.666667 0 0 0 170.666667 170.666667h141.952zM279.253333 430.506667a38.826667 38.826667 0 1 1 0 77.568 38.826667 38.826667 0 0 1 0-77.568z m0-193.962667a38.826667 38.826667 0 1 1 0 77.610667 38.826667 38.826667 0 0 1 0-77.610667z m0-193.92a38.826667 38.826667 0 1 1 0 77.568 38.826667 38.826667 0 0 1 0-77.568zM473.216 508.16a38.826667 38.826667 0 0 1 0-77.653333h310.314667a38.826667 38.826667 0 0 1 0 77.653333H473.173333z m0-193.962667a38.826667 38.826667 0 0 1 0-77.610666h310.314667a38.826667 38.826667 0 0 1 0 77.610666H473.173333z m0-193.962666a38.826667 38.826667 0 1 1 0-77.568h310.314667a38.826667 38.826667 0 0 1 0 77.568H473.173333z"  horiz-adv-x="1024" />

    
    <glyph glyph-name="quiz" unicode="&#59130;" d="M690.346667 36.90666699999997a86.101333 86.101333 0 0 0-8.576-9.813334l-106.666667-104.533333a85.333333 85.333333 0 0 0-119.466667 0l-109.226666 107.093333a86.741333 86.741333 0 0 0-3.072 3.2A448.128 448.128 0 0 0 64 448C64 695.424 264.576 896 512 896S960 695.424 960 448c0-184.021333-110.933333-342.144-269.653333-411.093333zM520.661333 665.173333c-52.352 0-93.909333-15.018667-124.032-45.866666-30.805333-30.08-45.866667-70.954667-45.866666-123.306667H426.666667c0 31.573333 6.485333 56.661333 19.370666 73.856 14.336 20.053333 37.973333 30.122667 70.272 30.122667 25.813333 0 45.866667-7.168 60.202667-21.504 13.653333-14.336 20.778667-33.706667 20.778667-58.794667 0-18.645333-6.442667-35.84-19.328-52.309333l-12.202667-13.653334c-44.458667-39.424-71.68-68.778667-81.706667-88.874666-9.344-18.645333-13.653333-41.557333-13.653333-68.096v-12.16h76.714667v12.16c0 17.92 3.584 33.706667 11.477333 48.042666a124.586667 124.586667 0 0 0 29.397333 36.565334c34.389333 29.354667 54.485333 48 60.928 55.893333 17.194667 22.954667 26.496 52.309333 26.496 87.466667 0 43.008-14.336 77.397333-42.24 102.485333-28.714667 25.813333-65.962667 37.973333-112.554666 37.973333z m-12.202666-419.328c-15.061333 0-27.221333-4.266667-36.565334-14.336-10.752-9.301333-15.786667-21.504-15.786666-36.522666 0-14.336 5.034667-26.538667 15.786666-36.565334 9.344-10.026667 21.504-15.061333 36.565334-15.061333 14.336 0 27.221333 5.034667 37.973333 14.336 10.069333 10.026667 15.061333 22.186667 15.061333 37.290667 0 15.018667-4.992 27.221333-15.061333 36.522666-10.026667 10.069333-22.912 14.336-37.973333 14.336z"  horiz-adv-x="1024" />

    
    <glyph glyph-name="picture" unicode="&#59131;" d="M204.8 896h614.4a204.8 204.8 0 0 0 204.8-204.8v-614.4a204.8 204.8 0 0 0-204.8-204.8H204.8a204.8 204.8 0 0 0-204.8 204.8V691.2a204.8 204.8 0 0 0 204.8 204.8z m657.8688-843.9296l-217.5488 221.184a75.776 75.776 0 0 1-109.7216 0l-96.256-97.8432-44.288 45.056a75.776 75.776 0 0 1-109.7216 0L123.392 55.961599999999976a48.64 48.64 0 0 1-9.6256-29.3888c0-21.504 17.3568-39.1168 38.5024-39.1168a34.7136 34.7136 0 0 1 26.9824 11.7248l161.6896 164.4544 161.7408-164.4544c7.68-7.8336 17.3056-11.776 28.8768-11.776a38.912 38.912 0 0 1 38.5024 39.168c0 11.776-5.7856 21.504-11.5712 29.3888l-63.488 64.5632 96.256 97.8944 217.4976-221.184c7.68-5.888 15.4112-9.7792 25.0368-9.7792a38.912 38.912 0 0 1 38.5024 39.1168 37.5808 37.5808 0 0 1-9.6256 25.4464zM306.2784 525.6704a38.912 38.912 0 0 0 38.5024-39.168 38.912 38.912 0 0 0-38.5024-39.1168 38.912 38.912 0 0 0-38.5024 39.1168 38.912 38.912 0 0 0 38.5024 39.168z m0-156.5696c63.5392 0 115.5072 52.8384 115.5072 117.4016 0 64.6144-51.968 117.4528-115.5072 117.4528-63.488 0-115.5072-52.8384-115.5072-117.4528 0-64.5632 51.968-117.4016 115.5072-117.4016z"  horiz-adv-x="1024" />

    
    <glyph glyph-name="emoticon" unicode="&#59132;" d="M512-128C229.2224-128 0 101.2224 0 384S229.2224 896 512 896s512-229.2224 512-512-229.2224-512-512-512zM292.5568 459.5712a73.1648 73.1648 0 1 1 0 146.2784 73.1648 73.1648 0 0 1 0-146.2784z m438.8864 0a73.1648 73.1648 0 1 1 0 146.2784 73.1648 73.1648 0 0 1 0-146.2784z m-12.1856-97.536c0-85.504-91.2384-158.464-207.2576-158.464s-207.2576 72.96-207.2576 158.464a36.5568 36.5568 0 0 1-73.1136 0c0-129.8944 127.0784-231.5776 280.3712-231.5776 153.2928 0 280.3712 101.6832 280.3712 231.5776a36.5568 36.5568 0 0 1-73.1136 0z"  horiz-adv-x="1024" />

    
    <glyph glyph-name="owner" unicode="&#59133;" d="M253.5936 632.832a253.5424 252.9792 0 1 1 507.0848 0 253.5424 252.9792 0 1 1-507.0848 0ZM855.808 537.9584a158.464 158.1056 0 1 1 316.928 0 158.464 158.1056 0 1 1-316.928 0ZM1014.272-126.15679999999998c0 279.4496-227.072 505.9584-507.136 505.9584S0 153.29280000000006 0-126.15679999999998h1014.272zM1042.0736 63.590400000000045a444.1088 444.1088 0 0 1-218.0096 265.0112c49.7664 32.4096 109.1584 51.2 173.0048 51.2 175.0528 0 316.928-141.568 316.928-316.2112h-271.872z"  horiz-adv-x="1331" />

    
    <glyph glyph-name="n_anchor" unicode="&#59134;" d="M507.136 379.8016A253.2864 253.2864 0 0 0 253.5424 632.832 253.2864 253.2864 0 0 0 507.136 885.76a253.2864 253.2864 0 0 0 253.5424-252.928 253.2864 253.2864 0 0 0-253.5424-253.0304z m507.136-505.9584H0c0 279.4496 227.072 505.9584 507.136 505.9584s507.136-226.5088 507.136-505.9584zM379.0848 266.85440000000006L483.1232-25.600000000000023h57.7536l104.0384 292.4544H592.896l-80.2816-238.3872h-1.2288L431.104 266.85440000000006H379.0848z"  horiz-adv-x="1024" />

    
    <glyph glyph-name="oneself" unicode="&#59135;" d="M253.5936 632.832a253.5424 252.9792 0 1 1 507.0848 0 253.5424 252.9792 0 1 1-507.0848 0ZM1014.272-126.15679999999998c0 279.4496-227.072 505.9584-507.136 505.9584S0 153.29280000000006 0-126.15679999999998h1014.272z"  horiz-adv-x="1024" />

    
    <glyph glyph-name="pass" unicode="&#59138;" d="M512-128A512 512 0 1 0 512 896a512 512 0 0 0 0-1024z m-82.944 359.879111L265.614222 395.377778A46.535111 46.535111 0 1 1 199.793778 329.386667l197.518222-197.404445a46.535111 46.535111 0 0 1 73.386667 9.841778 47.502222 47.502222 0 0 1 0.398222 0.455111l394.979555 394.922667a46.535111 46.535111 0 1 1-65.877333 65.820444l-371.143111-371.2z"  horiz-adv-x="1024" />

    
    <glyph glyph-name="delete" unicode="&#59139;" d="M53.894737 729.411368m62.464 0l791.282526 0q62.464 0 62.464-62.464l0 0q0-62.464-62.464-62.464l-791.282526 0q-62.464 0-62.464 62.464l0 0q0 62.464 62.464 62.464ZM345.411368 896m62.464 0l208.249264 0q62.464 0 62.464-62.464l0 0q0-62.464-62.464-62.464l-208.249264 0q-62.464 0-62.464 62.464l0 0q0 62.464 62.464 62.464ZM298.846316 729.465263h426.307368a161.684211 161.684211 0 0 0 161.684211-161.68421v-509.574737a161.684211 161.684211 0 0 0-161.684211-161.684211h-426.307368a161.684211 161.684211 0 0 0-161.684211 161.684211V567.7271579999999a161.684211 161.684211 0 0 0 161.684211 161.68421z m46.565052-208.303158a41.660632 41.660632 0 0 1-83.267368 0v-499.712a41.660632 41.660632 0 1 1 83.267368 0V521.162105z m416.444632 0a41.660632 41.660632 0 1 1-83.267368 0v-499.712a41.660632 41.660632 0 0 1 83.267368 0V521.162105z m-208.195368-182.16421a41.660632 41.660632 0 1 1-83.321264 0v-281.114948a41.660632 41.660632 0 0 1 83.321264 0v281.114948z"  horiz-adv-x="1024" />

    
    <glyph glyph-name="volume" unicode="&#59141;" d="M154.087619 605.4765709999999c-13.653333 0-26.672762-5.461333-36.327619-15.11619-9.606095-9.752381-15.018667-22.918095-15.018667-36.668952v-310.954667c0-28.623238 22.966857-51.833905 51.346286-51.833905h132.778667c27.306667 0 53.394286-10.873905 72.655238-30.329905l154.087619-155.452952V791.259429l-154.087619-155.452953a102.302476 102.302476 0 0 0-72.655238-30.329905H154.087619z m359.570286-704.024381a102.253714 102.253714 0 0 0-72.655238 30.329905l-154.087619 155.452953H154.087619c-85.089524 0-154.087619 69.632-154.087619 155.501714V553.691429c0 85.820952 68.998095 155.452952 154.087619 155.452952h132.778667L440.953905 864.597333A102.058667 102.058667 0 0 0 552.96 887.125333a103.66781 103.66781 0 0 0 63.390476-95.865904V5.1200000000000045c0.097524-41.935238-24.966095-79.823238-63.390476-95.865905-12.483048-5.12-25.84381-7.753143-39.302095-7.801905zM934.278095-19.651047999999946c-13.55581 0-26.526476 5.36381-36.083809 15.018667a52.077714 52.077714 0 0 0 0 73.289143 468.74819 468.74819 0 0 1 134.972952 329.532952 468.74819 468.74819 0 0 1-135.021714 329.581715 52.175238 52.175238 0 0 0-13.214476 50.029714c4.729905 17.895619 18.529524 31.841524 36.181333 36.62019 17.700571 4.827429 36.571429-0.292571 49.493333-13.409523a572.903619 572.903619 0 0 0 165.010286-402.773334c0-151.161905-59.392-296.033524-165.010286-402.870857-9.654857-9.703619-22.77181-15.11619-36.376381-15.018667M756.394667 108.49523799999997c-13.55581 0-26.526476 5.36381-36.08381 15.018667a52.077714 52.077714 0 0 0 0 73.289143 287.256381 287.256381 0 0 1 60.367238 90.599619 289.889524 289.889524 0 0 1 0 221.622857 287.158857 287.158857 0 0 1-60.367238 90.599619 52.224 52.224 0 0 0 0 73.240381 50.809905 50.809905 0 0 0 72.411429 0 392.094476 392.094476 0 0 0 82.163809-123.465143 392.533333 392.533333 0 0 0 0-302.372571 391.996952 391.996952 0 0 0-82.163809-123.513905c-9.654857-9.703619-22.723048-15.11619-36.327619-15.018667"  horiz-adv-x="1170" />

    
    <glyph glyph-name="netIPhone" unicode="&#59142;" d="M512-108.30769199999997C240.088615-108.30769199999997 19.692308 112.088615 19.692308 384S240.088615 876.307692 512 876.307692 1004.307692 655.911385 1004.307692 384 783.911385-108.30769199999997 512-108.30769199999997z m0 39.384615c250.131692 0 452.923077 202.791385 452.923077 452.923077S762.131692 836.923077 512 836.923077 59.076923 634.1316919999999 59.076923 384 261.868308-68.92307700000003 512-68.92307700000003z m87.197538 662.055385c-20.322462-25.954462-53.799385-46.198154-86.44923-43.480616-4.489846 35.249231 12.130462 71.995077 30.916923 95.074462 21.070769 25.954462 56.556308 45.213538 85.858461 46.473846 3.741538-35.958154-9.964308-72.073846-30.326154-98.067692z m133.828924-99.721846c-2.638769-1.693538-63.409231-35.721846-62.621539-106.732308 0.787692-84.795077 77.036308-112.955077 77.902769-113.467077-0.590769-1.811692-12.209231-40.093538-40.172307-79.596308-24.182154-34.146462-49.230769-68.135385-88.772923-68.844307-38.990769-0.669538-51.396923 22.252308-95.862154 22.252307-44.425846 0-58.328615-21.504-95.035077-22.921846-38.203077-1.339077-67.268923 36.864-91.648 70.892308-49.939692 69.513846-88.024615 196.608-36.824616 282.387692a142.966154 142.966154 0 0 0 120.044308 70.262154c37.494154 0.669538 72.861538-24.339692 95.744-24.339692 22.921846 0 65.890462 30.050462 111.104 25.678769 18.983385-0.827077 72.073846-7.483077 106.141539-55.571692z"  horiz-adv-x="1024" />

    
    <glyph glyph-name="netWindowPc" unicode="&#59144;" d="M512-108.30769199999997C240.088615-108.30769199999997 19.692308 112.088615 19.692308 384S240.088615 876.307692 512 876.307692 1004.307692 655.911385 1004.307692 384 783.911385-108.30769199999997 512-108.30769199999997z m0 39.384615c250.131692 0 452.923077 202.791385 452.923077 452.923077S762.131692 836.923077 512 836.923077 59.076923 634.1316919999999 59.076923 384 261.868308-68.92307700000003 512-68.92307700000003z m-45.883077 421.336615v-165.415384c0-11.342769-10.043077-20.086154-21.385846-18.589539l-176.246154 23.11877a18.825846 18.825846 0 0 0-16.423385 18.589538v143.241846c0 10.397538 8.546462 18.786462 19.02277 18.747077l176.206769-0.905846a18.825846 18.825846 0 0 0 18.825846-18.786462z m309.208615-3.387076v-206.257231c0-11.342769-10.003692-20.086154-21.267692-18.510769l-244.617846 33.988923a18.707692 18.707692 0 0 0-16.147692 18.510769v173.252923c0 10.358154 8.428308 18.747077 18.786461 18.707692l244.617846-0.984615a18.707692 18.707692 0 0 0 18.628923-18.707692z m-309.16923 232.054153v-165.139692c0-10.24-8.349538-18.589538-18.707693-18.668308l-176.443077-1.378461a18.747077 18.747077 0 0 0-18.944 18.668308V556.110769c0 9.294769 6.892308 17.171692 16.147693 18.471385l176.443077 25.009231c11.342769 1.575385 21.464615-7.128615 21.464615-18.51077z m309.16923 44.032v-208.462769c0-10.318769-8.270769-18.707692-18.510769-18.786461l-244.657231-1.969231a18.747077 18.747077 0 0 0-18.86523 18.786461V589.981538c0 9.373538 6.852923 17.329231 16.068923 18.628924l244.617846 35.170461a18.747077 18.747077 0 0 0 21.346461-18.628923z"  horiz-adv-x="1024" />

    
    <glyph glyph-name="netIPad" unicode="&#59145;" d="M196.923077 591.6356920000001L196.923077 212.44061499999998A67.741538 67.741538 0 0 1 264.664615 144.699077l514.63877 0a67.741538 67.741538 0 0 1 67.741538 67.741538l0 379.195077c0 37.415385-30.326154 67.741538-67.741538 67.741539L264.625231 659.3772309999999A67.741538 67.741538 0 0 1 196.923077 591.6356920000001M819.948308 402.038154a40.644923 40.644923 0 1 0-81.289846 0 40.644923 40.644923 0 0 0 81.289846 0m-108.347077 203.145846L711.601231 198.89230799999996 278.173538 198.89230799999996l0 406.291692M535.827692 508.612923c9.964308 12.721231 16.699077 30.444308 14.887385 48.049231-14.375385-0.590769-31.783385-10.043077-42.141539-22.764308-9.176615-11.303385-17.329231-29.341538-15.163076-46.631384 16.029538-1.339077 32.452923 8.585846 42.41723 21.346461m65.61477-48.915692c-16.699077 23.591385-42.732308 26.820923-52.027077 27.254154-22.173538 2.126769-43.244308-12.603077-54.508308-12.603077-11.224615 0-28.553846 12.288-46.946462 11.933538a70.104615 70.104615 0 0 1-58.840615-34.422154c-25.127385-42.102154-6.459077-104.408615 18.038154-138.515692 11.933538-16.659692 26.230154-35.406769 44.937846-34.776615 17.998769 0.708923 24.812308 11.264 46.631385 11.264 21.779692 0 27.884308-11.264 46.985846-10.909539 19.377231 0.354462 31.665231 17.014154 43.559384 33.752616 13.705846 19.377231 19.377231 38.124308 19.692308 39.030153-0.433231 0.236308-37.809231 14.060308-38.203077 55.650462-0.393846 34.816 29.380923 51.515077 30.72 52.342154zM512-108.30769199999997c271.911385 0 492.307692 220.396308 492.307692 492.307692S783.911385 876.307692 512 876.307692 19.692308 655.911385 19.692308 384 240.088615-108.30769199999997 512-108.30769199999997z m0 39.384615C261.868308-68.92307700000003 59.076923 133.86830799999996 59.076923 384S261.868308 836.923077 512 836.923077 964.923077 634.1316919999999 964.923077 384 762.131692-68.92307700000003 512-68.92307700000003z"  horiz-adv-x="1024" />

    
    <glyph glyph-name="netAndroidPad" unicode="&#59147;" d="M196.923077 591.6356920000001L196.923077 212.44061499999998A67.741538 67.741538 0 0 1 264.664615 144.699077l514.63877 0a67.741538 67.741538 0 0 1 67.741538 67.741538l0 379.195077c0 37.415385-30.326154 67.741538-67.741538 67.741539L264.625231 659.3772309999999A67.741538 67.741538 0 0 1 196.923077 591.6356920000001M819.948308 402.038154a40.644923 40.644923 0 1 0-81.289846 0 40.644923 40.644923 0 0 0 81.289846 0m-108.347077 203.145846L711.601231 198.89230799999996 278.173538 198.89230799999996l0 406.291692M581.435077 462.454154l0.275692-120.516923a13.508923 13.508923 0 0 0-13.587692-13.902769H564.263385v-37.45477c0-3.544615-1.299692-6.695385-3.938462-9.373538a12.996923 12.996923 0 0 0-9.649231-4.017231h-7.876923a12.8 12.8 0 0 0-9.412923 4.017231 12.996923 12.996923 0 0 0-3.938461 9.373538v37.45477h-50.018462v-37.45477c0-3.544615-1.299692-6.695385-3.938461-9.373538a12.996923 12.996923 0 0 0-9.688616-4.017231h-7.876923a12.8 12.8 0 0 0-9.373538 4.017231 12.996923 12.996923 0 0 0-3.938462 9.373538v37.45477h-2.993231a13.627077 13.627077 0 0 0-13.627077 13.902769v120.516923h153.403077z m-43.244308 33.476923c2.363077 0 4.332308 0.787692 5.986462 2.441846a7.916308 7.916308 0 0 1 2.481231 5.907692c0 2.323692-0.827077 4.253538-2.481231 5.868308a8.192 8.192 0 0 1-5.986462 2.441846c-2.363077 0-4.332308-0.787692-5.986461-2.441846a7.916308 7.916308 0 0 1-2.441846-5.907692c0-2.323692 0.787692-4.253538 2.441846-5.907693a8.192 8.192 0 0 1 5.986461-2.402461zM471.315692 494.867692c2.363077 0 4.332308 0.787692 5.986462 2.402462a7.916308 7.916308 0 0 1 2.481231 5.907692c0 2.363077-0.827077 4.292923-2.481231 5.907692a8.192 8.192 0 0 1-5.986462 2.402462c-2.363077 0-4.332308-0.787692-5.986461-2.402462a7.916308 7.916308 0 0 1-2.441846-5.907692c0-2.363077 0.787692-4.292923 2.441846-5.907692a8.270769 8.270769 0 0 1 5.986461-2.402462zM547.170462 517.907692c3.268923-1.457231 6.695385-3.387077 10.200615-5.907692a70.656 70.656 0 0 0 18.747077-19.928615c2.441846-4.017231 4.214154-8.270769 5.277538-12.721231H426.968615c2.875077 9.452308 7.483077 17.250462 13.745231 23.276308a93.341538 93.341538 0 0 0 18.904616 14.454153L445.715692 538.505846C445.321846 538.899692 445.321846 539.529846 445.636923 540.553846c0.275692 0.984615 1.181538 2.008615 2.835692 3.111385 1.457231 1.260308 2.796308 1.811692 4.096 1.732923 1.260308-0.118154 2.087385-0.315077 2.441847-0.669539l14.178461-21.976615a80.108308 80.108308 0 0 0 33.476923 7.246769c12.288 0 23.788308-2.520615 34.500923-7.483077l14.414769 22.252308c0.393846 0.354462 1.024 0.512 2.048 0.512 0.984615 0 2.481231-0.512 4.489847-1.575385 1.811692-0.905846 2.835692-1.732923 3.150769-2.441846 0.236308-0.708923 0.196923-1.260308-0.157539-1.614769l-13.942153-21.700923zM397.036308 455.758769c4.174769 0 7.601231-1.299692 10.358154-3.899077a12.603077 12.603077 0 0 0 4.056615-9.491692V363.323077c0-3.544615-1.378462-6.616615-4.056615-9.255385a14.454154 14.454154 0 0 0-10.358154-3.859692H392.152615a15.36 15.36 0 0 0-10.633846 3.859692 11.972923 11.972923 0 0 0-4.332307 9.255385V442.407385c0 3.741538 1.457231 6.892308 4.332307 9.491692a15.438769 15.438769 0 0 0 10.633846 3.899077h4.883693z m220.553846 0a15.36 15.36 0 0 0 10.633846-3.899077c2.875077-2.56 4.332308-5.710769 4.332308-9.491692V363.323077c0-3.544615-1.457231-6.616615-4.332308-9.255385a15.438769 15.438769 0 0 0-10.633846-3.859692H612.706462a15.36 15.36 0 0 0-10.633847 3.859692 11.972923 11.972923 0 0 0-4.332307 9.255385V442.407385c0 3.741538 1.496615 6.892308 4.332307 9.491692a15.438769 15.438769 0 0 0 10.633847 3.899077h4.923076zM512-108.30769199999997c271.911385 0 492.307692 220.396308 492.307692 492.307692S783.911385 876.307692 512 876.307692 19.692308 655.911385 19.692308 384 240.088615-108.30769199999997 512-108.30769199999997z m0 39.384615C261.868308-68.92307700000003 59.076923 133.86830799999996 59.076923 384S261.868308 836.923077 512 836.923077 964.923077 634.1316919999999 964.923077 384 762.131692-68.92307700000003 512-68.92307700000003z"  horiz-adv-x="1024" />

    
    <glyph glyph-name="netMacPc" unicode="&#59148;" d="M512-108.30769199999997c271.911385 0 492.307692 220.396308 492.307692 492.307692S783.911385 876.307692 512 876.307692 19.692308 655.911385 19.692308 384 240.088615-108.30769199999997 512-108.30769199999997z m0 39.384615C261.868308-68.92307700000003 59.076923 133.86830799999996 59.076923 384S261.868308 836.923077 512 836.923077 964.923077 634.1316919999999 964.923077 384 762.131692-68.92307700000003 512-68.92307700000003zM512 417.792a33.752615 33.752615 0 0 1 0-67.544615 33.792 33.792 0 0 1 0 67.544615z m-84.401231-35.446154a84.086154 84.086154 0 0 0 24.733539 61.321846c16.187077 16.265846 38.360615 25.206154 61.321846 24.733539l165.415384 82.707692-82.707692-165.415385a84.125538 84.125538 0 0 0-24.694154-61.36123c-16.226462-16.265846-38.4-25.206154-61.36123-24.694154l-165.415385-82.707692 82.707692 165.415384zM512 687.812923c167.502769 0 303.812923-136.270769 303.812923-303.812923 0-167.502769-136.310154-303.812923-303.812923-303.812923-167.542154 0-303.812923 136.310154-303.812923 303.812923 0 167.542154 136.270769 303.812923 303.812923 303.812923zM157.538462 384a354.461538 354.461538 0 1 1 708.923076 0A354.461538 354.461538 0 0 1 157.538462 384z"  horiz-adv-x="1024" />

    
    <glyph glyph-name="netWXApplet" unicode="&#59150;" d="M511.684923 737.752615a354.107077 354.107077 0 1 1 0-708.214153 354.107077 354.107077 0 0 1 0 708.214153z m177.545846-318.227692c-13.784615-22.173538-35.328-38.360615-60.376615-45.489231-5.513846-1.811692-11.185231-2.756923-16.935385-2.835692a20.086154 20.086154 0 0 0 0 40.211692 10.870154 10.870154 0 0 1 4.450462 0.866462c16.108308 3.977846 30.011077 14.178462 38.675692 28.356923 5.041231 8.192 7.68 17.723077 7.640615 27.372308 0 31.783385-29.380923 58.013538-65.220923 58.013538a72.861538 72.861538 0 0 1-35.446153-9.294769 56.635077 56.635077 0 0 1-30.208-48.718769v-168.920616a95.744 95.744 0 0 0-50.294154-83.298461c-16.817231-9.452308-35.84-14.336-55.138462-14.178462-58.368 0-106.259692 43.953231-106.259692 98.264616 0.118154 17.053538 4.844308 33.713231 13.666461 48.285538 13.784615 22.134154 35.328 38.360615 60.416 45.489231 5.474462 1.732923 11.185231 2.717538 16.935385 2.835692a20.086154 20.086154 0 1 0 0-40.251077 10.830769 10.830769 0 0 1-4.489846-0.827077c-15.950769-4.332308-29.735385-14.414769-38.636308-28.356923-5.080615-8.231385-7.719385-17.723077-7.68-27.411692 0-31.783385 29.420308-57.974154 65.654154-57.974154 12.406154 0 24.615385 3.229538 35.446154 9.255385 18.116923 9.609846 29.656615 28.238769 30.168615 48.718769v168.172308c0.393846 34.855385 19.652923 66.756923 50.333539 83.337846 16.541538 9.924923 35.446154 15.044923 54.744615 14.887384 58.368 0 106.259692-43.913846 106.259692-98.264615a94.208 94.208 0 0 0-13.705846-48.285539zM512.039385-108.30769199999997c271.911385 0 492.307692 220.396308 492.307692 492.307692S783.950769 876.307692 512.039385 876.307692 19.731692 655.911385 19.731692 384 240.128-108.30769199999997 512.039385-108.30769199999997z m0 39.384615C261.907692-68.92307700000003 59.116308 133.86830799999996 59.116308 384S261.907692 836.923077 512.039385 836.923077 964.962462 634.1316919999999 964.962462 384 762.171077-68.92307700000003 512.039385-68.92307700000003z"  horiz-adv-x="1024" />

    
    <glyph glyph-name="netWindowClient" unicode="&#59152;" d="M512-108.30769199999997c271.911385 0 492.307692 220.396308 492.307692 492.307692S783.911385 876.307692 512 876.307692 19.692308 655.911385 19.692308 384 240.088615-108.30769199999997 512-108.30769199999997z m0 39.384615C261.868308-68.92307700000003 59.076923 133.86830799999996 59.076923 384S261.868308 836.923077 512 836.923077 964.923077 634.1316919999999 964.923077 384 762.131692-68.92307700000003 512-68.92307700000003zM354.461538 659.692308h315.076924a157.538462 157.538462 0 0 0 157.538461-157.538462v-183.808a157.538462 157.538462 0 0 0-157.538461-157.538461H354.461538a157.538462 157.538462 0 0 0-157.538461 157.538461V502.153846a157.538462 157.538462 0 0 0 157.538461 157.538462z m0-39.384616a118.153846 118.153846 0 0 1-118.153846-118.153846v-183.808a118.153846 118.153846 0 0 1 118.153846-118.153846h315.076924a118.153846 118.153846 0 0 1 118.153846 118.153846V502.153846a118.153846 118.153846 0 0 1-118.153846 118.153846H354.461538zM459.500308 160.80738499999995h118.153846v-78.769231h-118.153846zM380.731077 95.19261500000005m26.269538 0l236.268308 0q26.269538 0 26.269539-26.269538l0 0.039385q0-26.269538-26.269539-26.269539l-236.268308 0q-26.269538 0-26.269538 26.269539l0-0.039385q0 26.269538 26.269538 26.269538ZM492.819692 406.724923v-76.484923a8.704 8.704 0 0 0-9.846154-8.585846l-81.526153 10.673231a8.664615 8.664615 0 0 0-7.601231 8.585846v66.244923c0 4.804923 3.938462 8.704 8.782769 8.664615l81.526154-0.393846c4.804923-0.039385 8.664615-3.938462 8.664615-8.664615m142.966154-1.575385v-95.389538a8.664615 8.664615 0 0 0-9.806769-8.585847l-113.112615 15.753847a8.664615 8.664615 0 0 0-7.483077 8.546461v80.108308a8.664615 8.664615 0 0 0 8.664615 8.664615l113.152-0.472615a8.664615 8.664615 0 0 0 8.625231-8.664616m-142.966154 107.323077v-76.366769a8.664615 8.664615 0 0 0-8.664615-8.625231l-81.565539-0.630153a8.664615 8.664615 0 0 0-8.782769 8.62523v65.457231c0 4.292923 3.150769 7.916308 7.483077 8.546462l81.565538 11.539692a8.664615 8.664615 0 0 0 9.924923-8.546462m142.966154 20.361847v-96.413539a8.664615 8.664615 0 0 0-8.546461-8.664615l-113.112616-0.905846a8.664615 8.664615 0 0 0-8.704 8.664615V516.568615c0 4.332308 3.150769 7.995077 7.404308 8.625231l113.112615 16.265846a8.664615 8.664615 0 0 0 9.846154-8.62523"  horiz-adv-x="1024" />

    
    <glyph glyph-name="netMacClient" unicode="&#59153;" d="M512-108.30769199999997c271.911385 0 492.307692 220.396308 492.307692 492.307692S783.911385 876.307692 512 876.307692 19.692308 655.911385 19.692308 384 240.088615-108.30769199999997 512-108.30769199999997z m0 39.384615C261.868308-68.92307700000003 59.076923 133.86830799999996 59.076923 384S261.868308 836.923077 512 836.923077 964.923077 634.1316919999999 964.923077 384 762.131692-68.92307700000003 512-68.92307700000003zM354.461538 659.692308h315.076924a157.538462 157.538462 0 0 0 157.538461-157.538462v-183.808a157.538462 157.538462 0 0 0-157.538461-157.538461H354.461538a157.538462 157.538462 0 0 0-157.538461 157.538461V502.153846a157.538462 157.538462 0 0 0 157.538461 157.538462z m0-39.384616a118.153846 118.153846 0 0 1-118.153846-118.153846v-183.808a118.153846 118.153846 0 0 1 118.153846-118.153846h315.076924a118.153846 118.153846 0 0 1 118.153846 118.153846V502.153846a118.153846 118.153846 0 0 1-118.153846 118.153846H354.461538zM459.500308 160.80738499999995h118.153846v-78.769231h-118.153846zM380.731077 95.19261500000005m26.269538 0l236.268308 0q26.269538 0 26.269539-26.269538l0 0.039385q0-26.269538-26.269539-26.269539l-236.268308 0q-26.269538 0-26.269538 26.269539l0-0.039385q0 26.269538 26.269538 26.269538ZM550.754462 511.094154c9.058462 11.539692 15.123692 27.569231 13.469538 43.559384-12.996923-0.551385-28.790154-9.097846-38.124308-20.637538-8.388923-10.24-15.753846-26.584615-13.784615-42.259692 14.532923-1.181538 29.380923 7.798154 38.439385 19.298461m59.470769-44.307692c-15.123692 21.385846-38.715077 24.339692-47.143385 24.694154-20.086154 1.969231-39.227077-11.421538-49.388308-11.421539-10.200615 0-25.915077 11.145846-42.535384 10.83077a63.527385 63.527385 0 0 1-53.366154-31.192616c-22.764308-38.163692-5.828923-94.641231 16.344615-125.518769 10.830769-15.123692 23.748923-32.098462 40.723693-31.507692 16.344615 0.630154 22.488615 10.200615 42.259692 10.200615 19.731692 0 25.284923-10.24 42.574769-9.924923 17.604923 0.354462 28.750769 15.438769 39.502769 30.601846 12.406154 17.565538 17.565538 34.579692 17.841231 35.367385-0.393846 0.236308-34.264615 12.760615-34.658461 50.451692-0.315077 31.547077 26.663385 46.670769 27.844923 47.419077z"  horiz-adv-x="1024" />

    
    <glyph glyph-name="MobileBrowser" unicode="&#59155;" d="M512-108.30769199999997c271.911385 0 492.307692 220.396308 492.307692 492.307692S783.911385 876.307692 512 876.307692 19.692308 655.911385 19.692308 384 240.088615-108.30769199999997 512-108.30769199999997z m0 39.384615C261.868308-68.92307700000003 59.076923 133.86830799999996 59.076923 384S261.868308 836.923077 512 836.923077 964.923077 634.1316919999999 964.923077 384 762.131692-68.92307700000003 512-68.92307700000003zM815.812923 384c0-167.502769-136.310154-303.812923-303.812923-303.812923-167.542154 0-303.812923 136.310154-303.812923 303.812923 0 167.542154 136.270769 303.812923 303.812923 303.812923 167.502769 0 303.812923-136.270769 303.812923-303.812923zM157.538462 384a354.461538 354.461538 0 1 1 708.923076 0A354.461538 354.461538 0 0 1 157.538462 384zM526.099692 570.525538c30.247385 0 54.350769-8.034462 72.78277-25.048615 17.486769-16.068923 26.466462-38.281846 26.466461-66.638769 0-21.267692-6.144-39.699692-17.959385-55.296-4.726154-5.671385-17.486769-17.959385-38.281846-36.391385a97.28 97.28 0 0 1-22.212923-25.993846 65.969231 65.969231 0 0 1-8.979692-34.500923v-10.870154h-37.809231v10.870154c0 15.596308 2.835692 29.302154 8.507077 41.117538 6.616615 14.178462 22.212923 32.137846 47.734154 54.823385 7.561846 7.561846 13.233231 13.233231 16.068923 17.014154 9.452308 11.815385 14.178462 24.103385 14.178462 37.336615 0 18.904615-5.671385 33.555692-16.068924 43.953231-10.870154 11.342769-26.466462 16.541538-46.316307 16.541539-23.630769 0-41.117538-7.561846-52.460308-23.158154-10.397538-13.233231-15.596308-31.192615-15.596308-54.35077h-37.336615c0 33.083077 8.979692 59.549538 27.884308 79.399385 18.904615 20.795077 45.371077 31.192615 79.399384 31.192615z m-7.08923-287.822769c8.034462 0 15.123692-2.363077 20.795076-8.034461 5.198769-5.198769 8.034462-11.815385 8.034462-19.849846a26.072615 26.072615 0 0 0-8.507077-20.322462 28.987077 28.987077 0 0 0-20.322461-8.034462 28.987077 28.987077 0 0 0-20.322462 8.034462 27.057231 27.057231 0 0 0-8.034462 20.322462c0 8.034462 2.363077 14.651077 8.034462 19.849846a27.057231 27.057231 0 0 0 20.322462 8.034461z"  horiz-adv-x="1024" />

    
    <glyph glyph-name="netAndroid" unicode="&#59156;" d="M512-108.30769199999997c271.911385 0 492.307692 220.396308 492.307692 492.307692S783.911385 876.307692 512 876.307692 19.692308 655.911385 19.692308 384 240.088615-108.30769199999997 512-108.30769199999997z m0 39.384615C261.868308-68.92307700000003 59.076923 133.86830799999996 59.076923 384S261.868308 836.923077 512 836.923077 964.923077 634.1316919999999 964.923077 384 762.131692-68.92307700000003 512-68.92307700000003zM664.418462 477.341538l0.551384-243.278769a27.293538 27.293538 0 0 0-7.995077-20.007384 26.387692 26.387692 0 0 0-19.456-8.073847h-7.68v-75.657846a25.993846 25.993846 0 0 0-7.955692-18.904615 26.308923 26.308923 0 0 0-19.534769-8.113231H586.436923a25.875692 25.875692 0 0 0-18.944 8.113231 26.269538 26.269538 0 0 0-7.995077 18.904615v75.618462H458.555077v-75.618462a25.993846 25.993846 0 0 0-7.995077-18.904615 26.308923 26.308923 0 0 0-19.534769-8.113231h-15.872a25.875692 25.875692 0 0 0-18.983385 8.113231 26.269538 26.269538 0 0 0-7.955692 18.904615v75.618462h-6.025846a27.569231 27.569231 0 0 0-27.490462 28.081231V477.380923h309.720616zM577.102769 544.886154a16.541538 16.541538 0 0 1 12.130462 4.883692 16.029538 16.029538 0 0 1 4.962461 11.933539c0 4.726154-1.654154 8.625231-4.962461 11.894153a16.541538 16.541538 0 0 1-12.130462 4.883693 16.541538 16.541538 0 0 1-12.051692-4.883693 16.029538 16.029538 0 0 1-5.001846-11.894153c0-4.726154 1.654154-8.664615 5.001846-11.933539a16.541538 16.541538 0 0 1 12.051692-4.883692z m-135.089231-2.166154a16.541538 16.541538 0 0 1 12.091077 4.883692 15.990154 15.990154 0 0 1 5.001847 11.894154c0 4.726154-1.654154 8.664615-5.001847 11.933539a16.541538 16.541538 0 0 1-12.091077 4.883692 16.541538 16.541538 0 0 1-12.091076-4.883692 16.029538 16.029538 0 0 1-4.962462-11.933539c0-4.726154 1.654154-8.625231 4.962462-11.894154a16.620308 16.620308 0 0 1 12.091076-4.883692z m153.206154 46.513231c6.577231-2.875077 13.469538-6.813538 20.55877-11.894154 7.128615-5.001846 14.020923-11.027692 20.558769-17.841231 6.577231-6.813538 12.366769-14.296615 17.329231-22.409846 4.962462-8.073846 8.507077-16.659692 10.67323-25.678769H352.531692c5.828923 19.101538 15.123692 34.816 27.766154 47.025231 12.603077 12.209231 25.324308 21.976615 38.163692 29.144615l-27.963076 43.323077C389.671385 631.571692 389.632 632.9107690000001 390.183385 634.88c0.551385 1.969231 2.441846 4.056615 5.789538 6.222769 2.914462 2.520615 5.632 3.702154 8.192 3.505231 2.599385-0.196923 4.253538-0.590769 5.001846-1.339077l28.514462-44.347077A161.752615 161.752615 0 0 0 505.304615 613.612308a163.446154 163.446154 0 0 0 69.71077-15.084308l29.144615 44.898462c0.708923 0.708923 2.048 1.063385 4.096 1.063384a22.055385 22.055385 0 0 0 9.058462-3.229538c3.702154-1.811692 5.789538-3.465846 6.301538-4.923077 0.590769-1.457231 0.472615-2.520615-0.196923-3.268923l-28.199385-43.795693zM292.155077 463.793231c8.388923 0 15.36-2.599385 20.873846-7.876923a25.521231 25.521231 0 0 0 8.192-19.180308V277.267692c0-7.207385-2.756923-13.390769-8.192-18.668307a29.144615 29.144615 0 0 0-20.873846-7.876923H282.269538a30.995692 30.995692 0 0 0-21.42523 7.876923A24.221538 24.221538 0 0 0 252.061538 277.267692V436.775385c0 7.561846 2.953846 13.981538 8.78277 19.219692 5.828923 5.198769 12.996923 7.876923 21.42523 7.876923h9.846154v-0.078769z m445.282461 0c8.428308 0 15.517538-2.599385 21.425231-7.876923a24.772923 24.772923 0 0 0 8.782769-19.180308V277.267692a24.418462 24.418462 0 0 0-8.782769-18.668307 31.153231 31.153231 0 0 0-21.425231-7.876923h-9.846153a30.995692 30.995692 0 0 0-21.464616 7.876923 24.221538 24.221538 0 0 0-8.782769 18.668307V436.775385c0 7.561846 2.953846 13.981538 8.782769 19.219692 5.828923 5.198769 12.996923 7.876923 21.425231 7.876923h9.885538v-0.078769z"  horiz-adv-x="1024" />

    
    <glyph glyph-name="upload" unicode="&#59157;" d="M204.8 896h614.4a204.8 204.8 0 0 0 204.8-204.8v-614.4a204.8 204.8 0 0 0-204.8-204.8H204.8a204.8 204.8 0 0 0-204.8 204.8V691.2a204.8 204.8 0 0 0 204.8 204.8z m-20.0192-133.5808a51.2 51.2 0 0 1-51.2-51.2v-253.7472a51.2 51.2 0 0 1 51.2-51.2h253.7472a51.2 51.2 0 0 1 51.2 51.2V711.168a51.2 51.2 0 0 1-51.2 51.2H184.832z m0-400.6912a51.2 51.2 0 0 1-51.2-51.2v-253.7472a51.2 51.2 0 0 1 51.2-51.2h253.7472a51.2 51.2 0 0 1 51.2 51.2v253.7472a51.2 51.2 0 0 1-51.2 51.2H184.832z m534.2208-133.5296a51.2 51.2 0 0 1-51.2-51.2v-120.2176a51.2 51.2 0 0 1 51.2-51.2h120.2176a51.2 51.2 0 0 1 51.2 51.2v120.2176a51.2 51.2 0 0 1-51.2 51.2h-120.2176zM585.472 762.3679999999999a51.2 51.2 0 0 1-51.2-51.2v-253.7472a51.2 51.2 0 0 1 51.2-51.2h253.7472a51.2 51.2 0 0 1 51.2 51.2V711.168a51.2 51.2 0 0 1-51.2 51.2h-253.7472z"  horiz-adv-x="1024" />

    
    <glyph glyph-name="close" unicode="&#59158;" d="M603.8016 384.6656l340.224-340.1728a85.8624 85.8624 0 0 0-121.4976-121.4976L482.304 263.2192 160.256-58.879999999999995a85.8624 85.8624 0 1 0-121.4464 121.4464l322.0992 322.0992L33.0752 712.4992a85.8624 85.8624 0 1 0 121.4464 121.4464L482.304 506.1632 828.2112 852.0704a85.8624 85.8624 0 1 0 121.4464-121.4976l-345.856-345.9072z"  horiz-adv-x="1024" />

    
    <glyph glyph-name="font" unicode="&#59159;" d="M640 640v-640a128 128 0 1 0-256 0V640H153.6a128 128 0 0 0 0 256h716.8a128 128 0 1 0 0-256H640z"  horiz-adv-x="1024" />

    
    <glyph glyph-name="translate" unicode="&#59160;" d="M73.159111 164.57955600000003H146.204444a146.261333 146.261333 0 0 1 146.318223-146.261334v-73.159111a219.420444 219.420444 0 0 0-219.420445 219.420445z m877.681778 438.840888h-73.159111a146.261333 146.261333 0 0 1-146.204445 146.318223V822.8408890000001a219.420444 219.420444 0 0 0 219.363556-219.420445z m-268.288-473.315555l42.439111 124.188444h1.592889l39.253333-124.131555h-83.285333z m-37.717333-109.966222l22.016 61.326222h114.688l22.016-61.326222h62.862222l-102.172445 290.702222h-73.841777l-105.244445-290.702222h59.733333-0.056888zM411.875556 577.877333H333.255111V646.9404440000001H411.875556v-69.12zM199.68 646.997333h77.027556v-69.12H199.68V646.9404440000001H199.68z m-53.418667-139.832889h53.418667v28.273778h77.027556v-135.168h56.547555V535.438222H411.875556v-23.608889h58.140444v179.2H333.255111v39.253334c0 11.548444 1.592889 21.504 4.778667 29.866666a12.060444 12.060444 0 0 1 1.536 4.721778c0 1.024-3.640889 2.048-10.979556 3.128889h-53.475555v-76.970667H146.204444v-183.864889zM0 822.897778C0 863.232 32.540444 896 73.159111 896h475.420445c40.391111 0 73.159111-32.540444 73.159111-73.159111v-475.420445c0-40.391111-32.597333-73.159111-73.159111-73.159111H73.159111C32.768 274.26133300000004 0 306.85866699999997 0 347.420444V822.8408890000001z m658.261333-329.159111h292.579556c40.391111 0 73.159111-32.597333 73.159111-73.159111v-475.420445c0-40.391111-32.540444-73.159111-73.159111-73.159111H475.420444c-40.391111 0-73.159111 32.540444-73.159111 73.159111v292.579556h146.318223a109.511111 109.511111 0 0 1 109.681777 109.681777V493.795556z"  horiz-adv-x="1024" />

    
    <glyph glyph-name="back" unicode="&#59161;" d="M682.667093-111.80882999999994L270.912196 343.975811A59.772937 59.772937 0 0 0 256.00096 383.97376099999997c0 15.039229 5.375724 29.438491 14.911236 39.933954L682.667093 879.756352a46.333625 46.333625 0 0 0 70.84437-0.511973c19.455003-22.078868 19.199016-57.597048-0.447977-79.41993L377.402738 383.97376099999997l375.660748-415.850687c19.71099-21.758885 19.90298-57.341061 0.447977-79.41993a47.357573 47.357573 0 0 0-35.646174-16.703144 47.357573 47.357573 0 0 0-35.198196 16.19117z"  horiz-adv-x="1024" />

    
    <glyph glyph-name="adopt" unicode="&#59162;" d="M512-128A512 512 0 1 0 512 896a512 512 0 0 0 0-1024z m-82.944 359.879111L265.614222 395.377778A46.535111 46.535111 0 1 1 199.793778 329.386667l197.518222-197.404445a46.535111 46.535111 0 0 1 73.386667 9.841778 46.819556 46.819556 0 0 1 0.398222 0.455111l394.979555 394.922667a46.535111 46.535111 0 1 1-65.877333 65.820444l-371.143111-371.2z"  horiz-adv-x="1024" />

    
    <glyph glyph-name="rubber" unicode="&#59165;" d="M689.365333 181.674667l-422.4 422.357333L512.042667 848.981333a128 128 0 0 0 181.034666 0l241.365334-241.365333a128 128 0 0 0 0-180.992l-245.034667-245.034667z m-60.330666-60.373334l-117.034667-117.034666a128 128 0 0 0-180.992 0L89.642667 245.674667a128 128 0 0 0 0 181.034666L206.592 543.6586669999999l422.4-422.357334zM85.333333-42.66666699999996m42.666667 0l426.666667 0q42.666667 0 42.666666-42.666666l0 0q0-42.666667-42.666666-42.666667l-426.666667 0q-42.666667 0-42.666667 42.666667l0 0q0 42.666667 42.666667 42.666666Z"  horiz-adv-x="1024" />

    
    <glyph glyph-name="pen" unicode="&#59166;" d="M163.84-106.077091l215.645091 80.337455-272.290909 253.952-65.163637-220.718546a93.090909 93.090909 0 0 1 121.809455-113.570909zM159.976727 297.70472700000005l272.290909-253.952L924.299636 571.392a116.363636 116.363636 0 0 1-5.725091 164.445091l-102.120727 95.232a116.363636 116.363636 0 0 1-164.445091-5.725091L159.976727 297.70472700000005z"  horiz-adv-x="1024" />

    
    <glyph glyph-name="mark_pen" unicode="&#59167;" d="M941.647102 463.194412l-328.436179 328.436179 32.838973 32.838973a92.896671 92.896671 0 0 0 131.355892 0l197.080287-197.033839a92.896671 92.896671 0 0 0 0-131.40234l-32.838973-32.838973z m-65.724395-65.677946l-328.38973-328.436179-328.482628 328.38973 328.436179 328.482627 328.436179-328.436178zM87.694457 3.35589200000004l65.677946-65.677946-65.677946-65.677946L21.970063-62.32205399999998zM153.372403 331.838519c-60.475733-158.528168-60.475733-268.006895 0-328.482627 60.475733-60.429284 169.954459-60.429284 328.436179 0L153.418851 331.838519z"  horiz-adv-x="1024" />

    
    <glyph glyph-name="line" unicode="&#59168;" d="M14.621387 21.944672999999966m36.203867 36.203867l796.485079 796.485078q36.203867 36.203867 72.407734 0l72.407734-72.407734q36.203867-36.203867 0-72.407735l-796.485078-796.485078q-36.203867-36.203867-72.407734 0l-72.407735 72.407734q-36.203867 36.203867 0 72.407735Z"  horiz-adv-x="1024" />

    
    <glyph glyph-name="arrows" unicode="&#59172;" d="M786.108632 505.640421l-590.147369-590.147368a53.894737 53.894737 0 0 0-76.207158 0L43.546947-8.192000000000007a53.894737 53.894737 0 0 0 0 76.207158l590.147369 590.147368L527.090526 764.6585259999999a53.894737 53.894737 0 0 0 34.492632 91.890527l391.706947 26.085052a53.894737 53.894737 0 0 0 57.344-57.344l-26.085052-391.653052a53.894737 53.894737 0 0 0-91.890527-34.492632l-106.549894 106.496z"  horiz-adv-x="1024" />

    
    <glyph glyph-name="rectangle_rim" unicode="&#59173;" d="M1024 640v-512a256 256 0 0 0-256-256h-512A256 256 0 0 0 0 128v512A256 256 0 0 0 256 896h512A256 256 0 0 0 1024 640z m-227.555556 0a28.444444 28.444444 0 0 1-28.444444 28.444444h-512a28.444444 28.444444 0 0 1-28.444444-28.444444v-512a28.444444 28.444444 0 0 1 28.444444-28.444444h512a28.444444 28.444444 0 0 1 28.444444 28.444444v512z"  horiz-adv-x="1024" />

    
    <glyph glyph-name="rectangle_tool" unicode="&#59174;" d="M1061.944889 896m0-227.555556l0-568.888888q0-227.555556-227.555556-227.555556l-568.888889 0q-227.555556 0-227.555555 227.555556l0 568.888888q0 227.555556 227.555555 227.555556l568.888889 0q227.555556 0 227.555556-227.555556Z"  horiz-adv-x="1080" />

    
    <glyph glyph-name="roundness_rim" unicode="&#59176;" d="M1042.944 384a512 512 0 1 0-1024 0 512 512 0 0 0 1024 0z m-227.555556 0a284.444444 284.444444 0 1 1-568.888888 0 284.444444 284.444444 0 0 1 568.888888 0z"  horiz-adv-x="1080" />

    
    <glyph glyph-name="roundness" unicode="&#59178;" d="M1024 384A512 512 0 1 0 0 384a512 512 0 0 0 1024 0z"  horiz-adv-x="1024" />

    
    <glyph glyph-name="xingzhuangjiehe" unicode="&#59179;" d="M748.436211 8.353684a162.869895 162.869895 0 0 0-11.533474-14.443789l-39.504842-44.193684a161.684211 161.684211 0 0 0-241.125053 0l-39.558737 44.193684a162.869895 162.869895 0 0 0-11.479579 14.497684H323.368421a323.368421 323.368421 0 0 0-323.368421 323.368421V525.635368a323.368421 323.368421 0 0 0 323.368421 323.368421h513.347368a323.368421 323.368421 0 0 0 323.368422-323.368421v-193.859368a323.368421 323.368421 0 0 0-323.368422-323.368421h-88.279578zM256.538947 330.859789a107.789474 107.789474 0 1 1 0 215.578948 107.789474 107.789474 0 0 1 0-215.578948z m327.141053 0a107.789474 107.789474 0 1 1 0 215.578948 107.789474 107.789474 0 0 1 0-215.578948z m327.248842 0a107.789474 107.789474 0 1 1 0 215.578948 107.789474 107.789474 0 0 1 0-215.578948z"  horiz-adv-x="1185" />

    
    <glyph glyph-name="time_pause" unicode="&#59180;" d="M294.4 881.371429C345.892571 881.371429 387.657143 839.68 387.657143 788.114286v-808.228572a93.257143 93.257143 0 1 0-186.514286 0V788.114286C201.142857 839.606857 242.834286 881.371429 294.4 881.371429z m435.2 0C781.092571 881.371429 822.857143 839.68 822.857143 788.114286v-808.228572a93.257143 93.257143 0 1 0-186.514286 0V788.114286C636.342857 839.606857 678.034286 881.371429 729.6 881.371429z"  horiz-adv-x="1024" />

    
    <glyph glyph-name="restart" unicode="&#59181;" d="M563.2 587.414588v-62.765176a60.235294 60.235294 0 0 0-98.785882-46.260706L311.536941 605.786353a60.235294 60.235294 0 0 0 0 92.521412L464.414118 825.705412a60.235294 60.235294 0 0 0 98.785882-46.260706v-70.234353A418.695529 418.695529 0 1 0 93.364706 293.647059a60.235294 60.235294 0 1 0 120.470588 0 298.164706 298.164706 0 1 1 349.364706 293.767529z"  horiz-adv-x="1024" />

    
    <glyph glyph-name="all_reset" unicode="&#59184;" d="M1237.858896-89.80533500000001s-10.239857-28.364403-23.910065 0c0 0-152.573864 494.789873-524.485457 370.170818v-153.54665s-5.939117-90.264336-79.205291-31.48756L244.592802 434.526525s-77.566914 45.362565 4.710334 107.364897L618.859562 883.185843S674.461984 925.681248 687.773798 855.896625l0.409594-165.732079c0-0.102399 693.135896-35.839498 549.675504-779.969881M37.133306 753.344461m43.57059 0l0 0q43.57059 0 43.570591-43.57059l0-483.372433q0-43.57059-43.570591-43.57059l0 0q-43.57059 0-43.57059 43.57059l0 483.372433q0 43.57059 43.57059 43.57059Z"  horiz-adv-x="1280" />

    
    <glyph glyph-name="clock" unicode="&#58885;" d="M509.05728 613.5466670000001c-166.912 0-302.677333-138.666667-302.677333-308.992 0-170.410667 135.765333-308.992 302.677333-308.992 166.912 0 302.677333 138.581333 302.677333 308.992 0 170.368-135.765333 308.949333-302.677333 308.949333z m52.736-339.370667l-0.170667 0.341333a60.074667 60.074667 0 0 0-52.565333-31.786666c-33.365333 0-60.544 27.733333-60.544 61.824 0 21.504 10.752 40.405333 27.008 51.370666l-0.170667 0.341334 199.552 116.522666-113.066666-198.613333z m275.84 303.36l38.314667 39.125333a17.92 17.92 0 0 1 0 24.96l-36.693334 37.461334a17.066667 17.066667 0 0 1-24.448 0l-38.314666-39.125334a417.066667 417.066667 0 0 1-224.170667 94.890667V807.722667h51.84a34.986667 34.986667 0 0 1 34.602667 35.285333V860.672a34.986667 34.986667 0 0 1-34.56 35.328H413.867947a34.986667 34.986667 0 0 1-34.56-35.328v-17.664a34.986667 34.986667 0 0 1 34.56-35.285333h51.925333v-72.832A417.365333 417.365333 0 0 1 241.622613 640l-38.314666 39.082667a17.024 17.024 0 0 1-24.448 0l-36.693334-37.461334a17.92 17.92 0 0 1 0-24.96l38.314667-39.082666A436.224 436.224 0 0 1 85.334613 304.554667C85.334613 65.70666700000004 275.07328-128 509.05728-128c233.984 0 423.722667 193.706667 423.722667 432.554667 0 103.552-35.669333 198.528-95.146667 273.024zM509.05728-39.67999999999995c-185.898667 0-337.237333 154.453333-337.237333 344.277333 0 189.781333 151.338667 344.277333 337.237333 344.277334 185.898667 0 337.237333-154.453333 337.237333-344.32 0-189.781333-151.338667-344.234667-337.237333-344.234667z"  horiz-adv-x="1024" />

    


  </font>
</defs>
</svg>
